<svg width="800" height="1024" viewBox="0 0 800 1024" fill="none" xmlns="http://www.w3.org/2000/svg">
<rect width="800" height="250" transform="translate(0 774)" fill="white"/>
<line y1="898" x2="300" y2="898" stroke="black" stroke-width="2"/>
<rect x="184.5" y="809.5" width="74" height="59" fill="#BF6A02" stroke="black"/>
<rect x="184.5" y="809.5" width="74" height="59" stroke="black"/>
<rect x="369.5" y="919.5" width="74" height="59" transform="rotate(90 369.5 919.5)" fill="#BF6A02" fill-opacity="0.2" stroke="black"/>
<line x1="300" y1="898.992" x2="301.008" y2="1018.99" stroke="black" stroke-width="2"/>
<line x1="299.997" y1="1018.51" x2="379.997" y2="1018.51" stroke="black" stroke-width="2"/>
<line x1="379" y1="1019" x2="379" y2="899" stroke="black" stroke-width="2"/>
<line x1="379" y1="898" x2="800" y2="898" stroke="black" stroke-width="2"/>
<path d="M259 835C261.218 835 266.43 835.32 270.066 836.372C273.145 837.262 276.116 837.913 279.284 838.96C283.459 840.339 286.73 841.147 289.713 842.681C292.975 844.359 296.785 846.158 300.324 848.103C303.736 849.978 305.913 851.985 309.17 854.009C312.502 856.081 314.851 858.617 317.088 860.807C319.591 863.256 321.376 865.9 324.068 868.896C326.256 871.33 327.699 873.834 329.381 876.262C331.186 878.869 331.989 881.923 333.57 884.516C335.085 887 336.078 890.498 336.74 893.256C337.364 895.854 337.766 898.432 338.785 901.105C339.441 907.148 339.626 915.431 339.905 916.966C340 917.699 340 918.34 340 919" stroke="#FF0000" stroke-width="2" stroke-linecap="round" stroke-dasharray="4 4"/>
<circle cx="210" cy="899" r="5" fill="#FBFF00"/>
<path d="M202.114 910.273V919H201.057V910.273H202.114ZM211.255 913H210.199C210.136 912.696 210.027 912.429 209.87 912.199C209.717 911.969 209.529 911.776 209.308 911.619C209.089 911.46 208.846 911.341 208.579 911.261C208.312 911.182 208.034 911.142 207.744 911.142C207.216 911.142 206.737 911.276 206.308 911.543C205.882 911.81 205.542 912.203 205.289 912.723C205.039 913.243 204.914 913.881 204.914 914.636C204.914 915.392 205.039 916.03 205.289 916.55C205.542 917.07 205.882 917.463 206.308 917.73C206.737 917.997 207.216 918.131 207.744 918.131C208.034 918.131 208.312 918.091 208.579 918.011C208.846 917.932 209.089 917.814 209.308 917.658C209.529 917.499 209.717 917.304 209.87 917.074C210.027 916.841 210.136 916.574 210.199 916.273H211.255C211.176 916.719 211.031 917.118 210.821 917.47C210.61 917.822 210.349 918.122 210.037 918.369C209.724 918.614 209.373 918.8 208.984 918.928C208.598 919.055 208.184 919.119 207.744 919.119C207 919.119 206.338 918.938 205.758 918.574C205.179 918.21 204.723 917.693 204.39 917.023C204.058 916.352 203.892 915.557 203.892 914.636C203.892 913.716 204.058 912.92 204.39 912.25C204.723 911.58 205.179 911.062 205.758 910.699C206.338 910.335 207 910.153 207.744 910.153C208.184 910.153 208.598 910.217 208.984 910.345C209.373 910.473 209.724 910.661 210.037 910.908C210.349 911.152 210.61 911.45 210.821 911.803C211.031 912.152 211.176 912.551 211.255 913ZM212.963 919V910.273H215.912C216.594 910.273 217.153 910.389 217.591 910.622C218.028 910.852 218.352 911.169 218.562 911.572C218.773 911.976 218.878 912.435 218.878 912.949C218.878 913.463 218.773 913.919 218.562 914.317C218.352 914.714 218.03 915.027 217.595 915.254C217.161 915.479 216.605 915.591 215.929 915.591H213.543V914.636H215.895C216.361 914.636 216.736 914.568 217.02 914.432C217.307 914.295 217.514 914.102 217.642 913.852C217.773 913.599 217.838 913.298 217.838 912.949C217.838 912.599 217.773 912.294 217.642 912.033C217.511 911.771 217.303 911.57 217.016 911.428C216.729 911.283 216.349 911.21 215.878 911.21H214.02V919H212.963ZM217.071 915.08L219.219 919H217.991L215.878 915.08H217.071Z" fill="black"/>
<path d="M319.448 863.221C319.571 862.973 319.469 862.674 319.221 862.552L315.185 860.562C314.937 860.44 314.637 860.542 314.515 860.789C314.393 861.037 314.495 861.337 314.743 861.459L318.33 863.227L316.562 866.815C316.44 867.063 316.542 867.363 316.789 867.485C317.037 867.607 317.337 867.505 317.459 867.257L319.448 863.221ZM213 899L213.161 899.473L319.161 863.473L319 863L318.839 862.527L212.839 898.527L213 899Z" fill="black"/>
<path d="M267.057 890V881.273H270.006C270.688 881.273 271.247 881.389 271.685 881.622C272.122 881.852 272.446 882.169 272.656 882.572C272.866 882.976 272.972 883.435 272.972 883.949C272.972 884.463 272.866 884.919 272.656 885.317C272.446 885.714 272.124 886.027 271.689 886.254C271.254 886.479 270.699 886.591 270.023 886.591H267.636V885.636H269.989C270.455 885.636 270.83 885.568 271.114 885.432C271.401 885.295 271.608 885.102 271.736 884.852C271.866 884.599 271.932 884.298 271.932 883.949C271.932 883.599 271.866 883.294 271.736 883.033C271.605 882.771 271.396 882.57 271.109 882.428C270.822 882.283 270.443 882.21 269.972 882.21H268.114V890H267.057ZM271.165 886.08L273.312 890H272.085L269.972 886.08H271.165ZM279.113 890V890.938H273.659V890H279.113ZM282.766 890.136C282.136 890.136 281.592 889.997 281.134 889.719C280.68 889.438 280.329 889.045 280.082 888.543C279.837 888.037 279.715 887.449 279.715 886.778C279.715 886.108 279.837 885.517 280.082 885.006C280.329 884.491 280.673 884.091 281.113 883.804C281.556 883.514 282.073 883.369 282.664 883.369C283.005 883.369 283.342 883.426 283.674 883.54C284.006 883.653 284.309 883.838 284.582 884.094C284.854 884.347 285.072 884.682 285.234 885.099C285.396 885.517 285.477 886.031 285.477 886.642V887.068H280.431V886.199H284.454C284.454 885.83 284.38 885.5 284.232 885.21C284.087 884.92 283.88 884.692 283.61 884.524C283.343 884.357 283.028 884.273 282.664 884.273C282.263 884.273 281.917 884.372 281.624 884.571C281.335 884.767 281.112 885.023 280.955 885.338C280.799 885.653 280.721 885.991 280.721 886.352V886.932C280.721 887.426 280.806 887.845 280.977 888.189C281.15 888.53 281.39 888.79 281.697 888.969C282.004 889.145 282.36 889.233 282.766 889.233C283.031 889.233 283.269 889.196 283.482 889.122C283.698 889.045 283.884 888.932 284.04 888.781C284.197 888.628 284.317 888.437 284.403 888.21L285.374 888.483C285.272 888.812 285.1 889.102 284.859 889.352C284.617 889.599 284.319 889.793 283.964 889.932C283.609 890.068 283.21 890.136 282.766 890.136ZM287.581 883.455L289.149 886.131L290.717 883.455H291.876L289.762 886.727L291.876 890H290.717L289.149 887.46L287.581 890H286.422L288.501 886.727L286.422 883.455H287.581ZM293.311 890V883.455H294.317V890H293.311ZM293.822 882.364C293.626 882.364 293.457 882.297 293.315 882.163C293.176 882.03 293.107 881.869 293.107 881.682C293.107 881.494 293.176 881.334 293.315 881.2C293.457 881.067 293.626 881 293.822 881C294.018 881 294.186 881.067 294.325 881.2C294.467 881.334 294.538 881.494 294.538 881.682C294.538 881.869 294.467 882.03 294.325 882.163C294.186 882.297 294.018 882.364 293.822 882.364ZM299.005 883.455V884.307H295.613V883.455H299.005ZM296.602 881.886H297.608V888.125C297.608 888.409 297.649 888.622 297.731 888.764C297.816 888.903 297.924 888.997 298.055 889.045C298.189 889.091 298.329 889.114 298.477 889.114C298.588 889.114 298.679 889.108 298.75 889.097C298.821 889.082 298.877 889.071 298.92 889.062L299.125 889.966C299.056 889.991 298.961 890.017 298.839 890.043C298.717 890.071 298.562 890.085 298.375 890.085C298.091 890.085 297.812 890.024 297.539 889.902C297.27 889.78 297.045 889.594 296.866 889.344C296.69 889.094 296.602 888.778 296.602 888.398V881.886Z" fill="black"/>
<path d="M260.339 831.958C277.172 831.958 303.394 833.059 310.752 833.901C314.033 834.276 331.325 835.293 356.054 835.156C365.934 835.101 376.414 834.459 391.688 834.047C410.167 833.547 430.107 834.159 436.24 835.431C441.731 836.57 447.349 837.228 453.469 837.932C464.209 839.169 483.734 836.977 503.165 836.402C512.499 836.126 517.384 838.895 526.268 839.737C543.692 841.389 566.576 841.68 573.525 842.238C576.68 842.492 590.655 843.631 611.482 843.356C628.064 843.137 636.861 840.863 643.844 840.158C646.632 839.877 662.616 839.462 687.737 838.774C704.45 838.317 711.94 835.018 718.289 834.601C742.179 833.033 751.085 835.293 758.068 834.464C766.659 833.626 776.698 833.901 779.053 834.455C780.308 834.735 781.684 835.01 783.101 835.293" stroke="#FF0000" stroke-width="2" stroke-linecap="round" stroke-dasharray="4 4"/>
<rect width="800" height="250" transform="translate(0 516)" fill="white"/>
<line y1="640" x2="300" y2="640" stroke="black" stroke-width="2"/>
<path d="M258.5 551.5V610.5H184.5V551.5H258.5Z" fill="#BF6A02" fill-opacity="0.2" stroke="black"/>
<rect x="184.5" y="551.5" width="74" height="59" stroke="black"/>
<rect x="369.5" y="661.5" width="74" height="59" transform="rotate(90 369.5 661.5)" fill="#BF6A02" stroke="black"/>
<line x1="300" y1="640.992" x2="301.008" y2="760.987" stroke="black" stroke-width="2"/>
<line x1="299.997" y1="760.506" x2="379.997" y2="760.506" stroke="black" stroke-width="2"/>
<line x1="379" y1="761" x2="379" y2="641" stroke="black" stroke-width="2"/>
<line x1="379" y1="640" x2="800" y2="640" stroke="black" stroke-width="2"/>
<path d="M238.646 711.521C238.451 711.717 238.451 712.033 238.646 712.229L241.828 715.411C242.023 715.606 242.34 715.606 242.535 715.411C242.731 715.215 242.731 714.899 242.535 714.703L239.707 711.875L242.535 709.047C242.731 708.851 242.731 708.535 242.535 708.339C242.34 708.144 242.023 708.144 241.828 708.339L238.646 711.521ZM300.355 712.229C300.55 712.033 300.55 711.717 300.355 711.521L297.173 708.339C296.978 708.144 296.661 708.144 296.466 708.339C296.271 708.535 296.271 708.851 296.466 709.047L299.294 711.875L296.466 714.703C296.271 714.899 296.271 715.215 296.466 715.411C296.661 715.606 296.978 715.606 297.173 715.411L300.355 712.229ZM239 711.875V712.375H300.002V711.875V711.375H239V711.875Z" fill="black"/>
<path d="M301.646 711.646C301.451 711.842 301.451 712.158 301.646 712.354L304.828 715.536C305.024 715.731 305.34 715.731 305.536 715.536C305.731 715.34 305.731 715.024 305.536 714.828L302.707 712L305.536 709.172C305.731 708.976 305.731 708.66 305.536 708.464C305.34 708.269 305.024 708.269 304.828 708.464L301.646 711.646ZM340.354 712.354C340.549 712.158 340.549 711.842 340.354 711.646L337.172 708.464C336.976 708.269 336.66 708.269 336.464 708.464C336.269 708.66 336.269 708.976 336.464 709.172L339.293 712L336.464 714.828C336.269 715.024 336.269 715.34 336.464 715.536C336.66 715.731 336.976 715.731 337.172 715.536L340.354 712.354ZM302 712V712.5H340V712V711.5H302V712Z" fill="black"/>
<path d="M339.646 761.354C339.842 761.549 340.158 761.549 340.354 761.354L343.536 758.172C343.731 757.976 343.731 757.66 343.536 757.464C343.34 757.269 343.024 757.269 342.828 757.464L340 760.293L337.172 757.464C336.976 757.269 336.66 757.269 336.464 757.464C336.269 757.66 336.269 757.976 336.464 758.172L339.646 761.354ZM340.354 735.646C340.158 735.451 339.842 735.451 339.646 735.646L336.464 738.828C336.269 739.024 336.269 739.34 336.464 739.536C336.66 739.731 336.976 739.731 337.172 739.536L340 736.707L342.828 739.536C343.024 739.731 343.34 739.731 343.536 739.536C343.731 739.34 343.731 739.024 343.536 738.828L340.354 735.646ZM340 761H340.5V736H340H339.5V761H340Z" fill="black"/>
<path d="M341.646 711.646C341.451 711.842 341.451 712.158 341.646 712.354L344.828 715.536C345.024 715.731 345.34 715.731 345.536 715.536C345.731 715.34 345.731 715.024 345.536 714.828L342.707 712L345.536 709.172C345.731 708.976 345.731 708.66 345.536 708.464C345.34 708.269 345.024 708.269 344.828 708.464L341.646 711.646ZM380.354 712.354C380.549 712.158 380.549 711.842 380.354 711.646L377.172 708.464C376.976 708.269 376.66 708.269 376.464 708.464C376.269 708.66 376.269 708.976 376.464 709.172L379.293 712L376.464 714.828C376.269 715.024 376.269 715.34 376.464 715.536C376.66 715.731 376.976 715.731 377.172 715.536L380.354 712.354ZM342 712V712.5H380V712V711.5H342V712Z" fill="black"/>
<line x1="239.5" y1="581" x2="239.5" y2="712" stroke="black" stroke-dasharray="2 2"/>
<path d="M251.394 724.136C250.849 724.136 250.367 723.999 249.949 723.723C249.532 723.445 249.205 723.053 248.969 722.547C248.733 722.038 248.616 721.438 248.616 720.744C248.616 720.057 248.733 719.46 248.969 718.955C249.205 718.449 249.533 718.058 249.954 717.783C250.374 717.507 250.86 717.369 251.411 717.369C251.837 717.369 252.174 717.44 252.421 717.582C252.671 717.722 252.861 717.881 252.992 718.06C253.126 718.236 253.229 718.381 253.303 718.494H253.388V715.273H254.394V724H253.422V722.994H253.303C253.229 723.114 253.124 723.264 252.988 723.446C252.851 723.625 252.657 723.786 252.404 723.928C252.151 724.067 251.814 724.136 251.394 724.136ZM251.53 723.233C251.934 723.233 252.275 723.128 252.553 722.918C252.831 722.705 253.043 722.411 253.188 722.036C253.333 721.658 253.405 721.222 253.405 720.727C253.405 720.239 253.334 719.811 253.192 719.445C253.05 719.075 252.84 718.788 252.562 718.584C252.283 718.376 251.939 718.273 251.53 718.273C251.104 718.273 250.749 718.382 250.465 718.601C250.184 718.817 249.972 719.111 249.83 719.483C249.691 719.852 249.621 720.267 249.621 720.727C249.621 721.193 249.692 721.616 249.834 721.997C249.979 722.375 250.192 722.676 250.474 722.901C250.758 723.122 251.11 723.233 251.53 723.233ZM261.303 724V724.938H255.848V724H261.303ZM264.956 724.136C264.325 724.136 263.781 723.997 263.324 723.719C262.869 723.438 262.518 723.045 262.271 722.543C262.027 722.037 261.905 721.449 261.905 720.778C261.905 720.108 262.027 719.517 262.271 719.006C262.518 718.491 262.862 718.091 263.302 717.804C263.746 717.514 264.263 717.369 264.854 717.369C265.194 717.369 265.531 717.426 265.863 717.54C266.196 717.653 266.498 717.838 266.771 718.094C267.044 718.347 267.261 718.682 267.423 719.099C267.585 719.517 267.666 720.031 267.666 720.642V721.068H262.621V720.199H266.643C266.643 719.83 266.569 719.5 266.422 719.21C266.277 718.92 266.069 718.692 265.8 718.524C265.532 718.357 265.217 718.273 264.854 718.273C264.453 718.273 264.106 718.372 263.814 718.571C263.524 718.767 263.301 719.023 263.145 719.338C262.988 719.653 262.91 719.991 262.91 720.352V720.932C262.91 721.426 262.996 721.845 263.166 722.189C263.339 722.53 263.579 722.79 263.886 722.969C264.193 723.145 264.55 723.233 264.956 723.233C265.22 723.233 265.459 723.196 265.672 723.122C265.888 723.045 266.074 722.932 266.23 722.781C266.386 722.628 266.507 722.437 266.592 722.21L267.564 722.483C267.461 722.812 267.29 723.102 267.048 723.352C266.807 723.599 266.508 723.793 266.153 723.932C265.798 724.068 265.399 724.136 264.956 724.136ZM270.202 720.062V724H269.196V717.455H270.167V718.477H270.253C270.406 718.145 270.639 717.878 270.952 717.676C271.264 717.472 271.667 717.369 272.162 717.369C272.605 717.369 272.993 717.46 273.325 717.642C273.657 717.821 273.916 718.094 274.101 718.46C274.285 718.824 274.378 719.284 274.378 719.841V724H273.372V719.909C273.372 719.395 273.238 718.994 272.971 718.707C272.704 718.418 272.338 718.273 271.872 718.273C271.551 718.273 271.264 718.342 271.011 718.482C270.761 718.621 270.564 718.824 270.419 719.091C270.274 719.358 270.202 719.682 270.202 720.062ZM279.062 717.455V718.307H275.67V717.455H279.062ZM276.659 715.886H277.664V722.125C277.664 722.409 277.705 722.622 277.788 722.764C277.873 722.903 277.981 722.997 278.112 723.045C278.245 723.091 278.386 723.114 278.534 723.114C278.644 723.114 278.735 723.108 278.806 723.097C278.877 723.082 278.934 723.071 278.977 723.062L279.181 723.966C279.113 723.991 279.018 724.017 278.896 724.043C278.774 724.071 278.619 724.085 278.431 724.085C278.147 724.085 277.869 724.024 277.596 723.902C277.326 723.78 277.102 723.594 276.923 723.344C276.747 723.094 276.659 722.778 276.659 722.398V715.886ZM280.575 724V717.455H281.546V718.443H281.615C281.734 718.119 281.95 717.857 282.262 717.655C282.575 717.453 282.927 717.352 283.319 717.352C283.393 717.352 283.485 717.354 283.596 717.357C283.707 717.359 283.791 717.364 283.847 717.369V718.392C283.813 718.384 283.735 718.371 283.613 718.354C283.494 718.334 283.367 718.324 283.234 718.324C282.916 718.324 282.632 718.391 282.382 718.524C282.134 718.655 281.938 718.837 281.794 719.07C281.651 719.3 281.58 719.562 281.58 719.858V724H280.575ZM285.887 726.455C285.716 726.455 285.564 726.44 285.431 726.412C285.297 726.386 285.205 726.361 285.154 726.335L285.409 725.449C285.654 725.511 285.869 725.534 286.057 725.517C286.244 725.5 286.411 725.416 286.556 725.266C286.703 725.118 286.838 724.878 286.96 724.545L287.148 724.034L284.727 717.455H285.818L287.625 722.67H287.693L289.5 717.455H290.591L287.813 724.955C287.688 725.293 287.533 725.572 287.348 725.794C287.164 726.018 286.949 726.185 286.705 726.293C286.463 726.401 286.191 726.455 285.887 726.455Z" fill="black"/>
<path d="M355.66 707.091C355.296 707.091 354.975 706.999 354.697 706.815C354.418 706.63 354.201 706.368 354.043 706.031C353.886 705.692 353.808 705.292 353.808 704.83C353.808 704.371 353.886 703.973 354.043 703.636C354.201 703.299 354.419 703.039 354.7 702.855C354.98 702.671 355.304 702.58 355.671 702.58C355.955 702.58 356.18 702.627 356.344 702.722C356.511 702.814 356.638 702.92 356.725 703.04C356.814 703.157 356.883 703.254 356.933 703.33H356.989V701.182H357.66V707H357.012V706.33H356.933C356.883 706.409 356.813 706.509 356.722 706.631C356.631 706.75 356.502 706.857 356.333 706.952C356.165 707.045 355.94 707.091 355.66 707.091ZM355.751 706.489C356.02 706.489 356.247 706.419 356.433 706.278C356.618 706.136 356.759 705.94 356.856 705.69C356.952 705.438 357.001 705.148 357.001 704.818C357.001 704.492 356.953 704.207 356.859 703.963C356.764 703.717 356.624 703.526 356.438 703.389C356.253 703.251 356.023 703.182 355.751 703.182C355.467 703.182 355.23 703.255 355.04 703.401C354.853 703.545 354.712 703.741 354.617 703.989C354.524 704.235 354.478 704.511 354.478 704.818C354.478 705.129 354.525 705.411 354.62 705.665C354.717 705.917 354.859 706.117 355.046 706.267C355.236 706.415 355.47 706.489 355.751 706.489ZM362.266 707V707.625H358.629V707H362.266ZM363.239 707V702.636H363.886V703.295H363.932C364.011 703.08 364.155 702.904 364.364 702.77C364.572 702.635 364.807 702.568 365.068 702.568C365.117 702.568 365.179 702.569 365.253 702.571C365.327 702.573 365.383 702.576 365.42 702.58V703.261C365.398 703.256 365.346 703.247 365.264 703.236C365.185 703.223 365.1 703.216 365.011 703.216C364.799 703.216 364.61 703.26 364.443 703.349C364.278 703.437 364.148 703.558 364.051 703.713C363.956 703.866 363.909 704.042 363.909 704.239V707H363.239Z" fill="black"/>
<path d="M321.382 707.091C321.019 707.091 320.698 706.999 320.419 706.815C320.141 706.63 319.923 706.368 319.766 706.031C319.609 705.692 319.53 705.292 319.53 704.83C319.53 704.371 319.609 703.973 319.766 703.636C319.923 703.299 320.142 703.039 320.422 702.855C320.703 702.671 321.026 702.58 321.394 702.58C321.678 702.58 321.902 702.627 322.067 702.722C322.234 702.814 322.361 702.92 322.448 703.04C322.537 703.157 322.606 703.254 322.655 703.33H322.712V701.182H323.382V707H322.735V706.33H322.655C322.606 706.409 322.536 706.509 322.445 706.631C322.354 706.75 322.224 706.857 322.056 706.952C321.887 707.045 321.663 707.091 321.382 707.091ZM321.473 706.489C321.742 706.489 321.97 706.419 322.155 706.278C322.341 706.136 322.482 705.94 322.578 705.69C322.675 705.438 322.723 705.148 322.723 704.818C322.723 704.492 322.676 704.207 322.581 703.963C322.487 703.717 322.346 703.526 322.161 703.389C321.975 703.251 321.746 703.182 321.473 703.182C321.189 703.182 320.953 703.255 320.763 703.401C320.576 703.545 320.435 703.741 320.34 703.989C320.247 704.235 320.201 704.511 320.201 704.818C320.201 705.129 320.248 705.411 320.343 705.665C320.439 705.917 320.581 706.117 320.769 706.267C320.958 706.415 321.193 706.489 321.473 706.489ZM327.988 707V707.625H324.352V707H327.988ZM329.265 701.182V707H328.594V701.182H329.265Z" fill="black"/>
<path d="M184.354 610.646C184.158 610.451 183.842 610.451 183.646 610.646L180.464 613.828C180.269 614.024 180.269 614.34 180.464 614.536C180.66 614.731 180.976 614.731 181.172 614.536L184 611.707L186.828 614.536C187.024 614.731 187.34 614.731 187.536 614.536C187.731 614.34 187.731 614.024 187.536 613.828L184.354 610.646ZM183.646 640.354C183.842 640.549 184.158 640.549 184.354 640.354L187.536 637.172C187.731 636.976 187.731 636.66 187.536 636.464C187.34 636.269 187.024 636.269 186.828 636.464L184 639.293L181.172 636.464C180.976 636.269 180.66 636.269 180.464 636.464C180.269 636.66 180.269 636.976 180.464 637.172L183.646 640.354ZM184 611H183.5V640H184H184.5V611H184Z" fill="black"/>
<path d="M128.239 631L126.245 624.455H127.302L128.717 629.466H128.785L130.183 624.455H131.256L132.637 629.449H132.705L134.12 624.455H135.177L133.183 631H132.194L130.762 625.972H130.66L129.228 631H128.239ZM141.023 631V631.938H135.569V631H141.023ZM144.591 631.136C144 631.136 143.482 630.996 143.036 630.714C142.593 630.433 142.246 630.04 141.996 629.534C141.749 629.028 141.625 628.437 141.625 627.761C141.625 627.08 141.749 626.484 141.996 625.976C142.246 625.467 142.593 625.072 143.036 624.791C143.482 624.51 144 624.369 144.591 624.369C145.182 624.369 145.699 624.51 146.142 624.791C146.588 625.072 146.935 625.467 147.182 625.976C147.432 626.484 147.557 627.08 147.557 627.761C147.557 628.437 147.432 629.028 147.182 629.534C146.935 630.04 146.588 630.433 146.142 630.714C145.699 630.996 145.182 631.136 144.591 631.136ZM144.591 630.233C145.04 630.233 145.409 630.118 145.699 629.888C145.989 629.658 146.203 629.355 146.343 628.98C146.482 628.605 146.551 628.199 146.551 627.761C146.551 627.324 146.482 626.916 146.343 626.538C146.203 626.161 145.989 625.855 145.699 625.622C145.409 625.389 145.04 625.273 144.591 625.273C144.142 625.273 143.773 625.389 143.483 625.622C143.194 625.855 142.979 626.161 142.84 626.538C142.701 626.916 142.631 627.324 142.631 627.761C142.631 628.199 142.701 628.605 142.84 628.98C142.979 629.355 143.194 629.658 143.483 629.888C143.773 630.118 144.142 630.233 144.591 630.233ZM152.007 624.455V625.307H148.479V624.455H152.007ZM149.536 631V623.551C149.536 623.176 149.624 622.864 149.8 622.614C149.976 622.364 150.205 622.176 150.486 622.051C150.767 621.926 151.064 621.864 151.376 621.864C151.624 621.864 151.825 621.884 151.982 621.923C152.138 621.963 152.254 622 152.331 622.034L152.041 622.903C151.99 622.886 151.919 622.865 151.828 622.839C151.74 622.814 151.624 622.801 151.479 622.801C151.146 622.801 150.906 622.885 150.759 623.053C150.614 623.22 150.541 623.466 150.541 623.79V631H149.536ZM156.331 624.455V625.307H152.803V624.455H156.331ZM153.86 631V623.551C153.86 623.176 153.948 622.864 154.124 622.614C154.3 622.364 154.529 622.176 154.81 622.051C155.091 621.926 155.388 621.864 155.701 621.864C155.948 621.864 156.15 621.884 156.306 621.923C156.462 621.963 156.578 622 156.655 622.034L156.365 622.903C156.314 622.886 156.243 622.865 156.152 622.839C156.064 622.814 155.948 622.801 155.803 622.801C155.471 622.801 155.23 622.885 155.083 623.053C154.938 623.22 154.865 623.466 154.865 623.79V631H153.86ZM162.108 625.92L161.204 626.176C161.147 626.026 161.064 625.879 160.953 625.737C160.845 625.592 160.697 625.473 160.51 625.379C160.322 625.286 160.082 625.239 159.789 625.239C159.389 625.239 159.055 625.331 158.788 625.516C158.524 625.697 158.392 625.929 158.392 626.21C158.392 626.46 158.483 626.658 158.664 626.803C158.846 626.947 159.13 627.068 159.517 627.165L160.488 627.403C161.074 627.545 161.51 627.763 161.797 628.055C162.083 628.345 162.227 628.719 162.227 629.176C162.227 629.551 162.119 629.886 161.903 630.182C161.69 630.477 161.392 630.71 161.008 630.881C160.625 631.051 160.179 631.136 159.67 631.136C159.002 631.136 158.45 630.991 158.012 630.702C157.575 630.412 157.298 629.989 157.181 629.432L158.136 629.193C158.227 629.545 158.399 629.81 158.652 629.986C158.907 630.162 159.241 630.25 159.653 630.25C160.122 630.25 160.494 630.151 160.77 629.952C161.048 629.75 161.187 629.509 161.187 629.227C161.187 629 161.108 628.81 160.949 628.656C160.789 628.5 160.545 628.384 160.216 628.307L159.125 628.051C158.525 627.909 158.085 627.689 157.804 627.391C157.525 627.089 157.386 626.713 157.386 626.261C157.386 625.892 157.49 625.565 157.697 625.281C157.907 624.997 158.193 624.774 158.554 624.612C158.917 624.45 159.329 624.369 159.789 624.369C160.437 624.369 160.946 624.511 161.315 624.795C161.687 625.08 161.951 625.455 162.108 625.92ZM166.485 631.136C165.854 631.136 165.31 630.997 164.853 630.719C164.398 630.438 164.048 630.045 163.8 629.543C163.556 629.037 163.434 628.449 163.434 627.778C163.434 627.108 163.556 626.517 163.8 626.006C164.048 625.491 164.391 625.091 164.832 624.804C165.275 624.514 165.792 624.369 166.383 624.369C166.724 624.369 167.06 624.426 167.393 624.54C167.725 624.653 168.028 624.838 168.3 625.094C168.573 625.347 168.79 625.682 168.952 626.099C169.114 626.517 169.195 627.031 169.195 627.642V628.068H164.15V627.199H168.173C168.173 626.83 168.099 626.5 167.951 626.21C167.806 625.92 167.599 625.692 167.329 625.524C167.062 625.357 166.746 625.273 166.383 625.273C165.982 625.273 165.636 625.372 165.343 625.571C165.053 625.767 164.83 626.023 164.674 626.338C164.518 626.653 164.44 626.991 164.44 627.352V627.932C164.44 628.426 164.525 628.845 164.695 629.189C164.869 629.53 165.109 629.79 165.415 629.969C165.722 630.145 166.079 630.233 166.485 630.233C166.749 630.233 166.988 630.196 167.201 630.122C167.417 630.045 167.603 629.932 167.759 629.781C167.915 629.628 168.036 629.437 168.121 629.21L169.093 629.483C168.991 629.812 168.819 630.102 168.577 630.352C168.336 630.599 168.038 630.793 167.683 630.932C167.327 631.068 166.928 631.136 166.485 631.136ZM173.572 624.455V625.307H170.18V624.455H173.572ZM171.168 622.886H172.174V629.125C172.174 629.409 172.215 629.622 172.298 629.764C172.383 629.903 172.491 629.997 172.621 630.045C172.755 630.091 172.896 630.114 173.043 630.114C173.154 630.114 173.245 630.108 173.316 630.097C173.387 630.082 173.444 630.071 173.487 630.062L173.691 630.966C173.623 630.991 173.528 631.017 173.406 631.043C173.283 631.071 173.129 631.085 172.941 631.085C172.657 631.085 172.379 631.024 172.106 630.902C171.836 630.78 171.612 630.594 171.433 630.344C171.256 630.094 171.168 629.778 171.168 629.398V622.886Z" fill="black"/>
<path d="M259 577C261.218 577 266.43 577.32 270.066 578.372C273.145 579.262 276.116 579.913 279.284 580.96C283.459 582.339 286.73 583.147 289.713 584.681C292.975 586.359 296.785 588.158 300.324 590.103C303.736 591.978 305.913 593.985 309.17 596.009C312.502 598.081 314.851 600.617 317.088 602.807C319.591 605.256 321.376 607.9 324.068 610.896C326.256 613.33 327.699 615.834 329.381 618.262C331.186 620.869 331.989 623.923 333.57 626.516C335.085 629 336.078 632.498 336.74 635.256C337.364 637.854 337.766 640.432 338.785 643.105C339.441 649.148 339.626 657.431 339.905 658.966C340 659.699 340 660.34 340 661" stroke="#FF0000" stroke-width="2" stroke-linecap="round" stroke-dasharray="4 4"/>
<circle cx="210" cy="641" r="5" fill="#FBFF00"/>
<path d="M202.114 652.273V661H201.057V652.273H202.114ZM211.255 655H210.199C210.136 654.696 210.027 654.429 209.87 654.199C209.717 653.969 209.529 653.776 209.308 653.619C209.089 653.46 208.846 653.341 208.579 653.261C208.312 653.182 208.034 653.142 207.744 653.142C207.216 653.142 206.737 653.276 206.308 653.543C205.882 653.81 205.542 654.203 205.289 654.723C205.039 655.243 204.914 655.881 204.914 656.636C204.914 657.392 205.039 658.03 205.289 658.55C205.542 659.07 205.882 659.463 206.308 659.73C206.737 659.997 207.216 660.131 207.744 660.131C208.034 660.131 208.312 660.091 208.579 660.011C208.846 659.932 209.089 659.814 209.308 659.658C209.529 659.499 209.717 659.304 209.87 659.074C210.027 658.841 210.136 658.574 210.199 658.273H211.255C211.176 658.719 211.031 659.118 210.821 659.47C210.61 659.822 210.349 660.122 210.037 660.369C209.724 660.614 209.373 660.8 208.984 660.928C208.598 661.055 208.184 661.119 207.744 661.119C207 661.119 206.338 660.938 205.758 660.574C205.179 660.21 204.723 659.693 204.39 659.023C204.058 658.352 203.892 657.557 203.892 656.636C203.892 655.716 204.058 654.92 204.39 654.25C204.723 653.58 205.179 653.062 205.758 652.699C206.338 652.335 207 652.153 207.744 652.153C208.184 652.153 208.598 652.217 208.984 652.345C209.373 652.473 209.724 652.661 210.037 652.908C210.349 653.152 210.61 653.45 210.821 653.803C211.031 654.152 211.176 654.551 211.255 655ZM212.963 661V652.273H215.912C216.594 652.273 217.153 652.389 217.591 652.622C218.028 652.852 218.352 653.169 218.562 653.572C218.773 653.976 218.878 654.435 218.878 654.949C218.878 655.463 218.773 655.919 218.562 656.317C218.352 656.714 218.03 657.027 217.595 657.254C217.161 657.479 216.605 657.591 215.929 657.591H213.543V656.636H215.895C216.361 656.636 216.736 656.568 217.02 656.432C217.307 656.295 217.514 656.102 217.642 655.852C217.773 655.599 217.838 655.298 217.838 654.949C217.838 654.599 217.773 654.294 217.642 654.033C217.511 653.771 217.303 653.57 217.016 653.428C216.729 653.283 216.349 653.21 215.878 653.21H214.02V661H212.963ZM217.071 657.08L219.219 661H217.991L215.878 657.08H217.071Z" fill="black"/>
<path d="M319.448 605.221C319.571 604.973 319.469 604.674 319.221 604.552L315.185 602.562C314.937 602.44 314.637 602.542 314.515 602.789C314.393 603.037 314.495 603.337 314.743 603.459L318.33 605.227L316.562 608.815C316.44 609.063 316.542 609.363 316.789 609.485C317.037 609.607 317.337 609.505 317.459 609.257L319.448 605.221ZM213 641L213.161 641.473L319.161 605.473L319 605L318.839 604.527L212.839 640.527L213 641Z" fill="black"/>
<path d="M267.057 632V623.273H270.006C270.688 623.273 271.247 623.389 271.685 623.622C272.122 623.852 272.446 624.169 272.656 624.572C272.866 624.976 272.972 625.435 272.972 625.949C272.972 626.463 272.866 626.919 272.656 627.317C272.446 627.714 272.124 628.027 271.689 628.254C271.254 628.479 270.699 628.591 270.023 628.591H267.636V627.636H269.989C270.455 627.636 270.83 627.568 271.114 627.432C271.401 627.295 271.608 627.102 271.736 626.852C271.866 626.599 271.932 626.298 271.932 625.949C271.932 625.599 271.866 625.294 271.736 625.033C271.605 624.771 271.396 624.57 271.109 624.428C270.822 624.283 270.443 624.21 269.972 624.21H268.114V632H267.057ZM271.165 628.08L273.312 632H272.085L269.972 628.08H271.165ZM279.113 632V632.938H273.659V632H279.113ZM282.766 632.136C282.136 632.136 281.592 631.997 281.134 631.719C280.68 631.438 280.329 631.045 280.082 630.543C279.837 630.037 279.715 629.449 279.715 628.778C279.715 628.108 279.837 627.517 280.082 627.006C280.329 626.491 280.673 626.091 281.113 625.804C281.556 625.514 282.073 625.369 282.664 625.369C283.005 625.369 283.342 625.426 283.674 625.54C284.006 625.653 284.309 625.838 284.582 626.094C284.854 626.347 285.072 626.682 285.234 627.099C285.396 627.517 285.477 628.031 285.477 628.642V629.068H280.431V628.199H284.454C284.454 627.83 284.38 627.5 284.232 627.21C284.087 626.92 283.88 626.692 283.61 626.524C283.343 626.357 283.028 626.273 282.664 626.273C282.263 626.273 281.917 626.372 281.624 626.571C281.335 626.767 281.112 627.023 280.955 627.338C280.799 627.653 280.721 627.991 280.721 628.352V628.932C280.721 629.426 280.806 629.845 280.977 630.189C281.15 630.53 281.39 630.79 281.697 630.969C282.004 631.145 282.36 631.233 282.766 631.233C283.031 631.233 283.269 631.196 283.482 631.122C283.698 631.045 283.884 630.932 284.04 630.781C284.197 630.628 284.317 630.437 284.403 630.21L285.374 630.483C285.272 630.812 285.1 631.102 284.859 631.352C284.617 631.599 284.319 631.793 283.964 631.932C283.609 632.068 283.21 632.136 282.766 632.136ZM288.012 628.062V632H287.006V625.455H287.978V626.477H288.063C288.217 626.145 288.45 625.878 288.762 625.676C289.075 625.472 289.478 625.369 289.972 625.369C290.415 625.369 290.803 625.46 291.136 625.642C291.468 625.821 291.727 626.094 291.911 626.46C292.096 626.824 292.188 627.284 292.188 627.841V632H291.183V627.909C291.183 627.395 291.049 626.994 290.782 626.707C290.515 626.418 290.148 626.273 289.683 626.273C289.362 626.273 289.075 626.342 288.822 626.482C288.572 626.621 288.374 626.824 288.229 627.091C288.085 627.358 288.012 627.682 288.012 628.062ZM296.873 625.455V626.307H293.48V625.455H296.873ZM294.469 623.886H295.475V630.125C295.475 630.409 295.516 630.622 295.598 630.764C295.684 630.903 295.792 630.997 295.922 631.045C296.056 631.091 296.196 631.114 296.344 631.114C296.455 631.114 296.546 631.108 296.617 631.097C296.688 631.082 296.745 631.071 296.787 631.062L296.992 631.966C296.924 631.991 296.828 632.017 296.706 632.043C296.584 632.071 296.429 632.085 296.242 632.085C295.958 632.085 295.679 632.024 295.407 631.902C295.137 631.78 294.912 631.594 294.733 631.344C294.557 631.094 294.469 630.778 294.469 630.398V623.886ZM298.385 632V625.455H299.357V626.443H299.425C299.544 626.119 299.76 625.857 300.073 625.655C300.385 625.453 300.738 625.352 301.13 625.352C301.203 625.352 301.296 625.354 301.407 625.357C301.517 625.359 301.601 625.364 301.658 625.369V626.392C301.624 626.384 301.546 626.371 301.424 626.354C301.304 626.334 301.178 626.324 301.044 626.324C300.726 626.324 300.442 626.391 300.192 626.524C299.945 626.655 299.749 626.837 299.604 627.07C299.462 627.3 299.391 627.562 299.391 627.858V632H298.385ZM303.697 634.455C303.527 634.455 303.375 634.44 303.241 634.412C303.108 634.386 303.015 634.361 302.964 634.335L303.22 633.449C303.464 633.511 303.68 633.534 303.868 633.517C304.055 633.5 304.221 633.416 304.366 633.266C304.514 633.118 304.649 632.878 304.771 632.545L304.958 632.034L302.538 625.455H303.629L305.436 630.67H305.504L307.311 625.455H308.402L305.623 632.955C305.498 633.293 305.343 633.572 305.159 633.794C304.974 634.018 304.76 634.185 304.515 634.293C304.274 634.401 304.001 634.455 303.697 634.455Z" fill="black"/>
<path d="M347.815 747.636V748.205H345.462V747.636H347.815ZM346.167 752V747.034C346.167 746.784 346.226 746.576 346.343 746.409C346.46 746.242 346.613 746.117 346.8 746.034C346.988 745.951 347.186 745.909 347.394 745.909C347.559 745.909 347.693 745.922 347.798 745.949C347.902 745.975 347.979 746 348.031 746.023L347.837 746.602C347.803 746.591 347.756 746.577 347.695 746.56C347.637 746.543 347.559 746.534 347.462 746.534C347.241 746.534 347.081 746.59 346.982 746.702C346.886 746.813 346.837 746.977 346.837 747.193V752H346.167ZM351.648 752V752.625H348.012V752H351.648ZM354.027 752.091C353.633 752.091 353.287 751.997 352.99 751.81C352.695 751.622 352.464 751.36 352.297 751.023C352.132 750.686 352.05 750.292 352.05 749.841C352.05 749.386 352.132 748.99 352.297 748.651C352.464 748.312 352.695 748.048 352.99 747.861C353.287 747.673 353.633 747.58 354.027 747.58C354.421 747.58 354.766 747.673 355.061 747.861C355.358 748.048 355.589 748.312 355.754 748.651C355.921 748.99 356.004 749.386 356.004 749.841C356.004 750.292 355.921 750.686 355.754 751.023C355.589 751.36 355.358 751.622 355.061 751.81C354.766 751.997 354.421 752.091 354.027 752.091ZM354.027 751.489C354.326 751.489 354.572 751.412 354.766 751.259C354.959 751.105 355.102 750.903 355.195 750.653C355.287 750.403 355.334 750.133 355.334 749.841C355.334 749.549 355.287 749.277 355.195 749.026C355.102 748.774 354.959 748.57 354.766 748.415C354.572 748.259 354.326 748.182 354.027 748.182C353.728 748.182 353.482 748.259 353.288 748.415C353.095 748.57 352.952 748.774 352.859 749.026C352.767 749.277 352.72 749.549 352.72 749.841C352.72 750.133 352.767 750.403 352.859 750.653C352.952 750.903 353.095 751.105 353.288 751.259C353.482 751.412 353.728 751.489 354.027 751.489ZM358.971 747.636V748.205H356.619V747.636H358.971ZM357.323 752V747.034C357.323 746.784 357.382 746.576 357.499 746.409C357.617 746.242 357.769 746.117 357.957 746.034C358.144 745.951 358.342 745.909 358.55 745.909C358.715 745.909 358.85 745.922 358.954 745.949C359.058 745.975 359.136 746 359.187 746.023L358.994 746.602C358.96 746.591 358.912 746.577 358.852 746.56C358.793 746.543 358.715 746.534 358.619 746.534C358.397 746.534 358.237 746.59 358.138 746.702C358.042 746.813 357.994 746.977 357.994 747.193V752H357.323ZM361.854 747.636V748.205H359.501V747.636H361.854ZM360.206 752V747.034C360.206 746.784 360.265 746.576 360.382 746.409C360.5 746.242 360.652 746.117 360.839 746.034C361.027 745.951 361.225 745.909 361.433 745.909C361.598 745.909 361.732 745.922 361.837 745.949C361.941 745.975 362.018 746 362.07 746.023L361.876 746.602C361.842 746.591 361.795 746.577 361.734 746.56C361.676 746.543 361.598 746.534 361.501 746.534C361.28 746.534 361.12 746.59 361.021 746.702C360.925 746.813 360.876 746.977 360.876 747.193V752H360.206ZM365.705 748.614L365.102 748.784C365.064 748.684 365.009 748.586 364.935 748.491C364.863 748.395 364.764 748.315 364.639 748.253C364.514 748.19 364.354 748.159 364.159 748.159C363.892 748.159 363.67 748.221 363.491 748.344C363.315 748.465 363.227 748.619 363.227 748.807C363.227 748.973 363.288 749.105 363.409 749.202C363.53 749.298 363.72 749.379 363.977 749.443L364.625 749.602C365.015 749.697 365.306 749.842 365.497 750.037C365.688 750.23 365.784 750.479 365.784 750.784C365.784 751.034 365.712 751.258 365.568 751.455C365.426 751.652 365.227 751.807 364.972 751.92C364.716 752.034 364.419 752.091 364.08 752.091C363.634 752.091 363.266 751.994 362.974 751.801C362.683 751.608 362.498 751.326 362.42 750.955L363.057 750.795C363.117 751.03 363.232 751.206 363.401 751.324C363.571 751.441 363.794 751.5 364.068 751.5C364.381 751.5 364.629 751.434 364.812 751.301C364.998 751.167 365.091 751.006 365.091 750.818C365.091 750.667 365.038 750.54 364.932 750.438C364.826 750.333 364.663 750.256 364.443 750.205L363.716 750.034C363.316 749.939 363.023 749.793 362.835 749.594C362.65 749.393 362.557 749.142 362.557 748.841C362.557 748.595 362.626 748.377 362.764 748.188C362.904 747.998 363.095 747.849 363.335 747.741C363.578 747.634 363.852 747.58 364.159 747.58C364.591 747.58 364.93 747.674 365.176 747.864C365.424 748.053 365.6 748.303 365.705 748.614ZM368.623 752.091C368.202 752.091 367.84 751.998 367.535 751.812C367.232 751.625 366.998 751.364 366.833 751.028C366.67 750.691 366.589 750.299 366.589 749.852C366.589 749.405 366.67 749.011 366.833 748.67C366.998 748.328 367.227 748.061 367.521 747.869C367.816 747.676 368.161 747.58 368.555 747.58C368.782 747.58 369.006 747.617 369.228 747.693C369.45 747.769 369.651 747.892 369.833 748.062C370.015 748.231 370.16 748.455 370.268 748.733C370.376 749.011 370.43 749.354 370.43 749.761V750.045H367.066V749.466H369.748C369.748 749.22 369.699 749 369.6 748.807C369.504 748.614 369.365 748.461 369.185 748.349C369.007 748.238 368.797 748.182 368.555 748.182C368.288 748.182 368.057 748.248 367.862 748.381C367.668 748.511 367.52 748.682 367.415 748.892C367.311 749.102 367.259 749.328 367.259 749.568V749.955C367.259 750.284 367.316 750.563 367.43 750.793C367.545 751.02 367.705 751.193 367.91 751.312C368.114 751.43 368.352 751.489 368.623 751.489C368.799 751.489 368.958 751.464 369.1 751.415C369.244 751.364 369.368 751.288 369.472 751.188C369.576 751.085 369.657 750.958 369.714 750.807L370.362 750.989C370.293 751.208 370.179 751.402 370.018 751.568C369.857 751.733 369.658 751.862 369.421 751.955C369.184 752.045 368.918 752.091 368.623 752.091ZM373.347 747.636V748.205H371.086V747.636H373.347ZM371.745 746.591H372.415V750.75C372.415 750.939 372.443 751.081 372.498 751.176C372.555 751.269 372.627 751.331 372.714 751.364C372.803 751.394 372.897 751.409 372.995 751.409C373.069 751.409 373.129 751.405 373.177 751.398C373.224 751.388 373.262 751.381 373.29 751.375L373.427 751.977C373.381 751.994 373.318 752.011 373.237 752.028C373.155 752.047 373.052 752.057 372.927 752.057C372.737 752.057 372.552 752.016 372.37 751.935C372.19 751.853 372.04 751.729 371.921 751.562C371.804 751.396 371.745 751.186 371.745 750.932V746.591Z" fill="black"/>
<rect width="800" height="250" transform="translate(0 258)" fill="white"/>
<line y1="382" x2="300" y2="382" stroke="black" stroke-width="2"/>
<rect x="184.5" y="293.5" width="74" height="59" fill="#BF6A02" stroke="black"/>
<line x1="300" y1="382.992" x2="301.008" y2="502.987" stroke="black" stroke-width="2"/>
<line x1="299.997" y1="502.506" x2="379.997" y2="502.506" stroke="black" stroke-width="2"/>
<line x1="379" y1="503" x2="379" y2="383" stroke="black" stroke-width="2"/>
<line x1="379" y1="382" x2="800" y2="382" stroke="black" stroke-width="2"/>
<path d="M298.293 433.707C298.683 434.098 299.317 434.098 299.707 433.707L306.071 427.343C306.462 426.953 306.462 426.319 306.071 425.929C305.681 425.538 305.047 425.538 304.657 425.929L299 431.586L293.343 425.929C292.953 425.538 292.319 425.538 291.929 425.929C291.538 426.319 291.538 426.953 291.929 427.343L298.293 433.707ZM299 383H298V433H299H300V383H299Z" fill="#0033FF"/>
<path d="M350.707 383.707C351.098 383.317 351.098 382.683 350.707 382.293L344.343 375.929C343.953 375.538 343.319 375.538 342.929 375.929C342.538 376.319 342.538 376.953 342.929 377.343L348.586 383L342.929 388.657C342.538 389.047 342.538 389.681 342.929 390.071C343.319 390.462 343.953 390.462 344.343 390.071L350.707 383.707ZM300 383V384H350V383V382H300V383Z" fill="#0033FF"/>
<path d="M250.091 409.273C249.864 409.273 249.661 409.254 249.483 409.216C249.305 409.182 249.182 409.148 249.114 409.114L249.455 407.932C249.78 408.015 250.068 408.045 250.318 408.023C250.568 408 250.79 407.888 250.983 407.688C251.18 407.491 251.36 407.17 251.523 406.727L251.773 406.045L248.545 397.273H250L252.409 404.227H252.5L254.909 397.273H256.364L252.659 407.273C252.492 407.723 252.286 408.097 252.04 408.392C251.794 408.691 251.508 408.913 251.182 409.057C250.86 409.201 250.496 409.273 250.091 409.273ZM263.111 401.091C263.111 399.659 263.296 398.343 263.668 397.142C264.043 395.937 264.577 394.83 265.27 393.818H266.452C266.179 394.193 265.923 394.655 265.685 395.205C265.45 395.75 265.243 396.35 265.065 397.006C264.887 397.657 264.747 398.331 264.645 399.028C264.546 399.725 264.497 400.413 264.497 401.091C264.497 401.992 264.584 402.907 264.759 403.835C264.933 404.763 265.168 405.625 265.463 406.42C265.759 407.216 266.088 407.864 266.452 408.364H265.27C264.577 407.352 264.043 406.246 263.668 405.045C263.296 403.841 263.111 402.523 263.111 401.091ZM268.612 406V394.364H275.589V395.614H270.021V399.545H275.067V400.795H270.021V406H268.612ZM278.003 406V394.364H279.344V398.659H279.457C279.556 398.508 279.692 398.314 279.866 398.08C280.045 397.841 280.298 397.629 280.628 397.443C280.961 397.254 281.412 397.159 281.98 397.159C282.715 397.159 283.363 397.343 283.923 397.71C284.484 398.078 284.921 398.598 285.236 399.273C285.55 399.947 285.707 400.742 285.707 401.659C285.707 402.583 285.55 403.384 285.236 404.062C284.921 404.737 284.486 405.259 283.929 405.631C283.372 405.998 282.73 406.182 282.003 406.182C281.442 406.182 280.993 406.089 280.656 405.903C280.319 405.714 280.06 405.5 279.878 405.261C279.696 405.019 279.556 404.818 279.457 404.659H279.298V406H278.003ZM279.321 401.636C279.321 402.295 279.418 402.877 279.611 403.381C279.804 403.881 280.086 404.273 280.457 404.557C280.829 404.837 281.283 404.977 281.821 404.977C282.382 404.977 282.849 404.83 283.224 404.534C283.603 404.235 283.887 403.833 284.077 403.33C284.27 402.822 284.366 402.258 284.366 401.636C284.366 401.023 284.272 400.47 284.082 399.977C283.897 399.481 283.615 399.089 283.236 398.801C282.861 398.509 282.389 398.364 281.821 398.364C281.276 398.364 280.817 398.502 280.446 398.778C280.075 399.051 279.795 399.434 279.605 399.926C279.416 400.415 279.321 400.985 279.321 401.636ZM290.435 401.091C290.435 402.523 290.247 403.841 289.872 405.045C289.501 406.246 288.969 407.352 288.276 408.364H287.094C287.366 407.989 287.62 407.527 287.855 406.977C288.094 406.432 288.302 405.833 288.48 405.182C288.658 404.527 288.796 403.85 288.895 403.153C288.997 402.453 289.048 401.765 289.048 401.091C289.048 400.189 288.961 399.275 288.787 398.347C288.613 397.419 288.378 396.557 288.082 395.761C287.787 394.966 287.457 394.318 287.094 393.818H288.276C288.969 394.83 289.501 395.937 289.872 397.142C290.247 398.343 290.435 399.659 290.435 401.091Z" fill="black"/>
<path d="M314.227 360.273L316.318 363.841L318.409 360.273H319.955L317.136 364.636L319.955 369H318.409L316.318 365.614L314.227 369H312.682L315.455 364.636L312.682 360.273H314.227ZM326.845 364.091C326.845 362.659 327.031 361.343 327.402 360.142C327.777 358.937 328.311 357.83 329.004 356.818H330.186C329.913 357.193 329.658 357.655 329.419 358.205C329.184 358.75 328.978 359.35 328.8 360.006C328.622 360.657 328.482 361.331 328.379 362.028C328.281 362.725 328.232 363.413 328.232 364.091C328.232 364.992 328.319 365.907 328.493 366.835C328.667 367.763 328.902 368.625 329.197 369.42C329.493 370.216 329.822 370.864 330.186 371.364H329.004C328.311 370.352 327.777 369.246 327.402 368.045C327.031 366.841 326.845 365.523 326.845 364.091ZM332.347 369V357.364H339.324V358.614H333.756V362.545H338.801V363.795H333.756V369H332.347ZM341.737 369V357.364H343.078V361.659H343.192C343.29 361.508 343.427 361.314 343.601 361.08C343.779 360.841 344.033 360.629 344.362 360.443C344.696 360.254 345.146 360.159 345.714 360.159C346.449 360.159 347.097 360.343 347.658 360.71C348.218 361.078 348.656 361.598 348.97 362.273C349.285 362.947 349.442 363.742 349.442 364.659C349.442 365.583 349.285 366.384 348.97 367.062C348.656 367.737 348.22 368.259 347.663 368.631C347.107 368.998 346.464 369.182 345.737 369.182C345.177 369.182 344.728 369.089 344.391 368.903C344.054 368.714 343.794 368.5 343.612 368.261C343.43 368.019 343.29 367.818 343.192 367.659H343.033V369H341.737ZM343.055 364.636C343.055 365.295 343.152 365.877 343.345 366.381C343.538 366.881 343.821 367.273 344.192 367.557C344.563 367.837 345.018 367.977 345.555 367.977C346.116 367.977 346.584 367.83 346.959 367.534C347.338 367.235 347.622 366.833 347.811 366.33C348.004 365.822 348.101 365.258 348.101 364.636C348.101 364.023 348.006 363.47 347.817 362.977C347.631 362.481 347.349 362.089 346.97 361.801C346.595 361.509 346.124 361.364 345.555 361.364C345.01 361.364 344.552 361.502 344.18 361.778C343.809 362.051 343.529 362.434 343.339 362.926C343.15 363.415 343.055 363.985 343.055 364.636ZM354.169 364.091C354.169 365.523 353.982 366.841 353.607 368.045C353.235 369.246 352.703 370.352 352.01 371.364H350.828C351.101 370.989 351.355 370.527 351.589 369.977C351.828 369.432 352.036 368.833 352.214 368.182C352.393 367.527 352.531 366.85 352.629 366.153C352.732 365.453 352.783 364.765 352.783 364.091C352.783 363.189 352.696 362.275 352.521 361.347C352.347 360.419 352.112 359.557 351.817 358.761C351.521 357.966 351.192 357.318 350.828 356.818H352.01C352.703 357.83 353.235 358.937 353.607 360.142C353.982 361.343 354.169 362.659 354.169 364.091Z" fill="black"/>
<path d="M298.293 433.707C298.683 434.098 299.317 434.098 299.707 433.707L306.071 427.343C306.462 426.953 306.462 426.319 306.071 425.929C305.681 425.538 305.047 425.538 304.657 425.929L299 431.586L293.343 425.929C292.953 425.538 292.319 425.538 291.929 425.929C291.538 426.319 291.538 426.953 291.929 427.343L298.293 433.707ZM299 383H298V433H299H300V383H299Z" fill="#0033FF"/>
<path d="M350.707 383.707C351.098 383.317 351.098 382.683 350.707 382.293L344.343 375.929C343.953 375.538 343.319 375.538 342.929 375.929C342.538 376.319 342.538 376.953 342.929 377.343L348.586 383L342.929 388.657C342.538 389.047 342.538 389.681 342.929 390.071C343.319 390.462 343.953 390.462 344.343 390.071L350.707 383.707ZM300 383V384H350V383V382H300V383Z" fill="#0033FF"/>
<path d="M250.091 409.273C249.864 409.273 249.661 409.254 249.483 409.216C249.305 409.182 249.182 409.148 249.114 409.114L249.455 407.932C249.78 408.015 250.068 408.045 250.318 408.023C250.568 408 250.79 407.888 250.983 407.688C251.18 407.491 251.36 407.17 251.523 406.727L251.773 406.045L248.545 397.273H250L252.409 404.227H252.5L254.909 397.273H256.364L252.659 407.273C252.492 407.723 252.286 408.097 252.04 408.392C251.794 408.691 251.508 408.913 251.182 409.057C250.86 409.201 250.496 409.273 250.091 409.273ZM263.111 401.091C263.111 399.659 263.296 398.343 263.668 397.142C264.043 395.937 264.577 394.83 265.27 393.818H266.452C266.179 394.193 265.923 394.655 265.685 395.205C265.45 395.75 265.243 396.35 265.065 397.006C264.887 397.657 264.747 398.331 264.645 399.028C264.546 399.725 264.497 400.413 264.497 401.091C264.497 401.992 264.584 402.907 264.759 403.835C264.933 404.763 265.168 405.625 265.463 406.42C265.759 407.216 266.088 407.864 266.452 408.364H265.27C264.577 407.352 264.043 406.246 263.668 405.045C263.296 403.841 263.111 402.523 263.111 401.091ZM268.612 406V394.364H275.589V395.614H270.021V399.545H275.067V400.795H270.021V406H268.612ZM278.003 406V394.364H279.344V398.659H279.457C279.556 398.508 279.692 398.314 279.866 398.08C280.045 397.841 280.298 397.629 280.628 397.443C280.961 397.254 281.412 397.159 281.98 397.159C282.715 397.159 283.363 397.343 283.923 397.71C284.484 398.078 284.921 398.598 285.236 399.273C285.55 399.947 285.707 400.742 285.707 401.659C285.707 402.583 285.55 403.384 285.236 404.062C284.921 404.737 284.486 405.259 283.929 405.631C283.372 405.998 282.73 406.182 282.003 406.182C281.442 406.182 280.993 406.089 280.656 405.903C280.319 405.714 280.06 405.5 279.878 405.261C279.696 405.019 279.556 404.818 279.457 404.659H279.298V406H278.003ZM279.321 401.636C279.321 402.295 279.418 402.877 279.611 403.381C279.804 403.881 280.086 404.273 280.457 404.557C280.829 404.837 281.283 404.977 281.821 404.977C282.382 404.977 282.849 404.83 283.224 404.534C283.603 404.235 283.887 403.833 284.077 403.33C284.27 402.822 284.366 402.258 284.366 401.636C284.366 401.023 284.272 400.47 284.082 399.977C283.897 399.481 283.615 399.089 283.236 398.801C282.861 398.509 282.389 398.364 281.821 398.364C281.276 398.364 280.817 398.502 280.446 398.778C280.075 399.051 279.795 399.434 279.605 399.926C279.416 400.415 279.321 400.985 279.321 401.636ZM290.435 401.091C290.435 402.523 290.247 403.841 289.872 405.045C289.501 406.246 288.969 407.352 288.276 408.364H287.094C287.366 407.989 287.62 407.527 287.855 406.977C288.094 406.432 288.302 405.833 288.48 405.182C288.658 404.527 288.796 403.85 288.895 403.153C288.997 402.453 289.048 401.765 289.048 401.091C289.048 400.189 288.961 399.275 288.787 398.347C288.613 397.419 288.378 396.557 288.082 395.761C287.787 394.966 287.457 394.318 287.094 393.818H288.276C288.969 394.83 289.501 395.937 289.872 397.142C290.247 398.343 290.435 399.659 290.435 401.091Z" fill="black"/>
<path d="M314.227 360.273L316.318 363.841L318.409 360.273H319.955L317.136 364.636L319.955 369H318.409L316.318 365.614L314.227 369H312.682L315.455 364.636L312.682 360.273H314.227ZM326.845 364.091C326.845 362.659 327.031 361.343 327.402 360.142C327.777 358.937 328.311 357.83 329.004 356.818H330.186C329.913 357.193 329.658 357.655 329.419 358.205C329.184 358.75 328.978 359.35 328.8 360.006C328.622 360.657 328.482 361.331 328.379 362.028C328.281 362.725 328.232 363.413 328.232 364.091C328.232 364.992 328.319 365.907 328.493 366.835C328.667 367.763 328.902 368.625 329.197 369.42C329.493 370.216 329.822 370.864 330.186 371.364H329.004C328.311 370.352 327.777 369.246 327.402 368.045C327.031 366.841 326.845 365.523 326.845 364.091ZM332.347 369V357.364H339.324V358.614H333.756V362.545H338.801V363.795H333.756V369H332.347ZM341.737 369V357.364H343.078V361.659H343.192C343.29 361.508 343.427 361.314 343.601 361.08C343.779 360.841 344.033 360.629 344.362 360.443C344.696 360.254 345.146 360.159 345.714 360.159C346.449 360.159 347.097 360.343 347.658 360.71C348.218 361.078 348.656 361.598 348.97 362.273C349.285 362.947 349.442 363.742 349.442 364.659C349.442 365.583 349.285 366.384 348.97 367.062C348.656 367.737 348.22 368.259 347.663 368.631C347.107 368.998 346.464 369.182 345.737 369.182C345.177 369.182 344.728 369.089 344.391 368.903C344.054 368.714 343.794 368.5 343.612 368.261C343.43 368.019 343.29 367.818 343.192 367.659H343.033V369H341.737ZM343.055 364.636C343.055 365.295 343.152 365.877 343.345 366.381C343.538 366.881 343.821 367.273 344.192 367.557C344.563 367.837 345.018 367.977 345.555 367.977C346.116 367.977 346.584 367.83 346.959 367.534C347.338 367.235 347.622 366.833 347.811 366.33C348.004 365.822 348.101 365.258 348.101 364.636C348.101 364.023 348.006 363.47 347.817 362.977C347.631 362.481 347.349 362.089 346.97 361.801C346.595 361.509 346.124 361.364 345.555 361.364C345.01 361.364 344.552 361.502 344.18 361.778C343.809 362.051 343.529 362.434 343.339 362.926C343.15 363.415 343.055 363.985 343.055 364.636ZM354.169 364.091C354.169 365.523 353.982 366.841 353.607 368.045C353.235 369.246 352.703 370.352 352.01 371.364H350.828C351.101 370.989 351.355 370.527 351.589 369.977C351.828 369.432 352.036 368.833 352.214 368.182C352.393 367.527 352.531 366.85 352.629 366.153C352.732 365.453 352.783 364.765 352.783 364.091C352.783 363.189 352.696 362.275 352.521 361.347C352.347 360.419 352.112 359.557 351.817 358.761C351.521 357.966 351.192 357.318 350.828 356.818H352.01C352.703 357.83 353.235 358.937 353.607 360.142C353.982 361.343 354.169 362.659 354.169 364.091Z" fill="black"/>
<path d="M238.646 453.521C238.451 453.717 238.451 454.033 238.646 454.229L241.828 457.411C242.023 457.606 242.34 457.606 242.535 457.411C242.731 457.215 242.731 456.899 242.535 456.703L239.707 453.875L242.535 451.047C242.731 450.851 242.731 450.535 242.535 450.339C242.34 450.144 242.023 450.144 241.828 450.339L238.646 453.521ZM300.355 454.229C300.55 454.033 300.55 453.717 300.355 453.521L297.173 450.339C296.978 450.144 296.661 450.144 296.466 450.339C296.271 450.535 296.271 450.851 296.466 451.047L299.294 453.875L296.466 456.703C296.271 456.899 296.271 457.215 296.466 457.411C296.661 457.606 296.978 457.606 297.173 457.411L300.355 454.229ZM239 453.875V454.375H300.002V453.875V453.375H239V453.875Z" fill="black"/>
<line x1="239.5" y1="323" x2="239.5" y2="454" stroke="black" stroke-dasharray="2 2"/>
<path d="M251.394 466.136C250.849 466.136 250.367 465.999 249.949 465.723C249.532 465.445 249.205 465.053 248.969 464.547C248.733 464.038 248.616 463.438 248.616 462.744C248.616 462.057 248.733 461.46 248.969 460.955C249.205 460.449 249.533 460.058 249.954 459.783C250.374 459.507 250.86 459.369 251.411 459.369C251.837 459.369 252.174 459.44 252.421 459.582C252.671 459.722 252.861 459.881 252.992 460.06C253.126 460.236 253.229 460.381 253.303 460.494H253.388V457.273H254.394V466H253.422V464.994H253.303C253.229 465.114 253.124 465.264 252.988 465.446C252.851 465.625 252.657 465.786 252.404 465.928C252.151 466.067 251.814 466.136 251.394 466.136ZM251.53 465.233C251.934 465.233 252.275 465.128 252.553 464.918C252.831 464.705 253.043 464.411 253.188 464.036C253.333 463.658 253.405 463.222 253.405 462.727C253.405 462.239 253.334 461.811 253.192 461.445C253.05 461.075 252.84 460.788 252.562 460.584C252.283 460.376 251.939 460.273 251.53 460.273C251.104 460.273 250.749 460.382 250.465 460.601C250.184 460.817 249.972 461.111 249.83 461.483C249.691 461.852 249.621 462.267 249.621 462.727C249.621 463.193 249.692 463.616 249.834 463.997C249.979 464.375 250.192 464.676 250.474 464.901C250.758 465.122 251.11 465.233 251.53 465.233ZM261.303 466V466.938H255.848V466H261.303ZM264.956 466.136C264.325 466.136 263.781 465.997 263.324 465.719C262.869 465.438 262.518 465.045 262.271 464.543C262.027 464.037 261.905 463.449 261.905 462.778C261.905 462.108 262.027 461.517 262.271 461.006C262.518 460.491 262.862 460.091 263.302 459.804C263.746 459.514 264.263 459.369 264.854 459.369C265.194 459.369 265.531 459.426 265.863 459.54C266.196 459.653 266.498 459.838 266.771 460.094C267.044 460.347 267.261 460.682 267.423 461.099C267.585 461.517 267.666 462.031 267.666 462.642V463.068H262.621V462.199H266.643C266.643 461.83 266.569 461.5 266.422 461.21C266.277 460.92 266.069 460.692 265.8 460.524C265.532 460.357 265.217 460.273 264.854 460.273C264.453 460.273 264.106 460.372 263.814 460.571C263.524 460.767 263.301 461.023 263.145 461.338C262.988 461.653 262.91 461.991 262.91 462.352V462.932C262.91 463.426 262.996 463.845 263.166 464.189C263.339 464.53 263.579 464.79 263.886 464.969C264.193 465.145 264.55 465.233 264.956 465.233C265.22 465.233 265.459 465.196 265.672 465.122C265.888 465.045 266.074 464.932 266.23 464.781C266.386 464.628 266.507 464.437 266.592 464.21L267.564 464.483C267.461 464.812 267.29 465.102 267.048 465.352C266.807 465.599 266.508 465.793 266.153 465.932C265.798 466.068 265.399 466.136 264.956 466.136ZM270.202 462.062V466H269.196V459.455H270.167V460.477H270.253C270.406 460.145 270.639 459.878 270.952 459.676C271.264 459.472 271.667 459.369 272.162 459.369C272.605 459.369 272.993 459.46 273.325 459.642C273.657 459.821 273.916 460.094 274.101 460.46C274.285 460.824 274.378 461.284 274.378 461.841V466H273.372V461.909C273.372 461.395 273.238 460.994 272.971 460.707C272.704 460.418 272.338 460.273 271.872 460.273C271.551 460.273 271.264 460.342 271.011 460.482C270.761 460.621 270.564 460.824 270.419 461.091C270.274 461.358 270.202 461.682 270.202 462.062ZM279.062 459.455V460.307H275.67V459.455H279.062ZM276.659 457.886H277.664V464.125C277.664 464.409 277.705 464.622 277.788 464.764C277.873 464.903 277.981 464.997 278.112 465.045C278.245 465.091 278.386 465.114 278.534 465.114C278.644 465.114 278.735 465.108 278.806 465.097C278.877 465.082 278.934 465.071 278.977 465.062L279.181 465.966C279.113 465.991 279.018 466.017 278.896 466.043C278.774 466.071 278.619 466.085 278.431 466.085C278.147 466.085 277.869 466.024 277.596 465.902C277.326 465.78 277.102 465.594 276.923 465.344C276.747 465.094 276.659 464.778 276.659 464.398V457.886ZM280.575 466V459.455H281.546V460.443H281.615C281.734 460.119 281.95 459.857 282.262 459.655C282.575 459.453 282.927 459.352 283.319 459.352C283.393 459.352 283.485 459.354 283.596 459.357C283.707 459.359 283.791 459.364 283.847 459.369V460.392C283.813 460.384 283.735 460.371 283.613 460.354C283.494 460.334 283.367 460.324 283.234 460.324C282.916 460.324 282.632 460.391 282.382 460.524C282.134 460.655 281.938 460.837 281.794 461.07C281.651 461.3 281.58 461.562 281.58 461.858V466H280.575ZM285.887 468.455C285.716 468.455 285.564 468.44 285.431 468.412C285.297 468.386 285.205 468.361 285.154 468.335L285.409 467.449C285.654 467.511 285.869 467.534 286.057 467.517C286.244 467.5 286.411 467.416 286.556 467.266C286.703 467.118 286.838 466.878 286.96 466.545L287.148 466.034L284.727 459.455H285.818L287.625 464.67H287.693L289.5 459.455H290.591L287.813 466.955C287.688 467.293 287.533 467.572 287.348 467.794C287.164 468.018 286.949 468.185 286.705 468.293C286.463 468.401 286.191 468.455 285.887 468.455Z" fill="black"/>
<path d="M184.354 352.646C184.158 352.451 183.842 352.451 183.646 352.646L180.464 355.828C180.269 356.024 180.269 356.34 180.464 356.536C180.66 356.731 180.976 356.731 181.172 356.536L184 353.707L186.828 356.536C187.024 356.731 187.34 356.731 187.536 356.536C187.731 356.34 187.731 356.024 187.536 355.828L184.354 352.646ZM183.646 382.354C183.842 382.549 184.158 382.549 184.354 382.354L187.536 379.172C187.731 378.976 187.731 378.66 187.536 378.464C187.34 378.269 187.024 378.269 186.828 378.464L184 381.293L181.172 378.464C180.976 378.269 180.66 378.269 180.464 378.464C180.269 378.66 180.269 378.976 180.464 379.172L183.646 382.354ZM184 353H183.5V382H184H184.5V353H184Z" fill="black"/>
<path d="M128.239 373L126.245 366.455H127.302L128.717 371.466H128.785L130.183 366.455H131.256L132.637 371.449H132.705L134.12 366.455H135.177L133.183 373H132.194L130.762 367.972H130.66L129.228 373H128.239ZM141.023 373V373.938H135.569V373H141.023ZM144.591 373.136C144 373.136 143.482 372.996 143.036 372.714C142.593 372.433 142.246 372.04 141.996 371.534C141.749 371.028 141.625 370.437 141.625 369.761C141.625 369.08 141.749 368.484 141.996 367.976C142.246 367.467 142.593 367.072 143.036 366.791C143.482 366.51 144 366.369 144.591 366.369C145.182 366.369 145.699 366.51 146.142 366.791C146.588 367.072 146.935 367.467 147.182 367.976C147.432 368.484 147.557 369.08 147.557 369.761C147.557 370.437 147.432 371.028 147.182 371.534C146.935 372.04 146.588 372.433 146.142 372.714C145.699 372.996 145.182 373.136 144.591 373.136ZM144.591 372.233C145.04 372.233 145.409 372.118 145.699 371.888C145.989 371.658 146.203 371.355 146.343 370.98C146.482 370.605 146.551 370.199 146.551 369.761C146.551 369.324 146.482 368.916 146.343 368.538C146.203 368.161 145.989 367.855 145.699 367.622C145.409 367.389 145.04 367.273 144.591 367.273C144.142 367.273 143.773 367.389 143.483 367.622C143.194 367.855 142.979 368.161 142.84 368.538C142.701 368.916 142.631 369.324 142.631 369.761C142.631 370.199 142.701 370.605 142.84 370.98C142.979 371.355 143.194 371.658 143.483 371.888C143.773 372.118 144.142 372.233 144.591 372.233ZM152.007 366.455V367.307H148.479V366.455H152.007ZM149.536 373V365.551C149.536 365.176 149.624 364.864 149.8 364.614C149.976 364.364 150.205 364.176 150.486 364.051C150.767 363.926 151.064 363.864 151.376 363.864C151.624 363.864 151.825 363.884 151.982 363.923C152.138 363.963 152.254 364 152.331 364.034L152.041 364.903C151.99 364.886 151.919 364.865 151.828 364.839C151.74 364.814 151.624 364.801 151.479 364.801C151.146 364.801 150.906 364.885 150.759 365.053C150.614 365.22 150.541 365.466 150.541 365.79V373H149.536ZM156.331 366.455V367.307H152.803V366.455H156.331ZM153.86 373V365.551C153.86 365.176 153.948 364.864 154.124 364.614C154.3 364.364 154.529 364.176 154.81 364.051C155.091 363.926 155.388 363.864 155.701 363.864C155.948 363.864 156.15 363.884 156.306 363.923C156.462 363.963 156.578 364 156.655 364.034L156.365 364.903C156.314 364.886 156.243 364.865 156.152 364.839C156.064 364.814 155.948 364.801 155.803 364.801C155.471 364.801 155.23 364.885 155.083 365.053C154.938 365.22 154.865 365.466 154.865 365.79V373H153.86ZM162.108 367.92L161.204 368.176C161.147 368.026 161.064 367.879 160.953 367.737C160.845 367.592 160.697 367.473 160.51 367.379C160.322 367.286 160.082 367.239 159.789 367.239C159.389 367.239 159.055 367.331 158.788 367.516C158.524 367.697 158.392 367.929 158.392 368.21C158.392 368.46 158.483 368.658 158.664 368.803C158.846 368.947 159.13 369.068 159.517 369.165L160.488 369.403C161.074 369.545 161.51 369.763 161.797 370.055C162.083 370.345 162.227 370.719 162.227 371.176C162.227 371.551 162.119 371.886 161.903 372.182C161.69 372.477 161.392 372.71 161.008 372.881C160.625 373.051 160.179 373.136 159.67 373.136C159.002 373.136 158.45 372.991 158.012 372.702C157.575 372.412 157.298 371.989 157.181 371.432L158.136 371.193C158.227 371.545 158.399 371.81 158.652 371.986C158.907 372.162 159.241 372.25 159.653 372.25C160.122 372.25 160.494 372.151 160.77 371.952C161.048 371.75 161.187 371.509 161.187 371.227C161.187 371 161.108 370.81 160.949 370.656C160.789 370.5 160.545 370.384 160.216 370.307L159.125 370.051C158.525 369.909 158.085 369.689 157.804 369.391C157.525 369.089 157.386 368.713 157.386 368.261C157.386 367.892 157.49 367.565 157.697 367.281C157.907 366.997 158.193 366.774 158.554 366.612C158.917 366.45 159.329 366.369 159.789 366.369C160.437 366.369 160.946 366.511 161.315 366.795C161.687 367.08 161.951 367.455 162.108 367.92ZM166.485 373.136C165.854 373.136 165.31 372.997 164.853 372.719C164.398 372.438 164.048 372.045 163.8 371.543C163.556 371.037 163.434 370.449 163.434 369.778C163.434 369.108 163.556 368.517 163.8 368.006C164.048 367.491 164.391 367.091 164.832 366.804C165.275 366.514 165.792 366.369 166.383 366.369C166.724 366.369 167.06 366.426 167.393 366.54C167.725 366.653 168.028 366.838 168.3 367.094C168.573 367.347 168.79 367.682 168.952 368.099C169.114 368.517 169.195 369.031 169.195 369.642V370.068H164.15V369.199H168.173C168.173 368.83 168.099 368.5 167.951 368.21C167.806 367.92 167.599 367.692 167.329 367.524C167.062 367.357 166.746 367.273 166.383 367.273C165.982 367.273 165.636 367.372 165.343 367.571C165.053 367.767 164.83 368.023 164.674 368.338C164.518 368.653 164.44 368.991 164.44 369.352V369.932C164.44 370.426 164.525 370.845 164.695 371.189C164.869 371.53 165.109 371.79 165.415 371.969C165.722 372.145 166.079 372.233 166.485 372.233C166.749 372.233 166.988 372.196 167.201 372.122C167.417 372.045 167.603 371.932 167.759 371.781C167.915 371.628 168.036 371.437 168.121 371.21L169.093 371.483C168.991 371.812 168.819 372.102 168.577 372.352C168.336 372.599 168.038 372.793 167.683 372.932C167.327 373.068 166.928 373.136 166.485 373.136ZM173.572 366.455V367.307H170.18V366.455H173.572ZM171.168 364.886H172.174V371.125C172.174 371.409 172.215 371.622 172.298 371.764C172.383 371.903 172.491 371.997 172.621 372.045C172.755 372.091 172.896 372.114 173.043 372.114C173.154 372.114 173.245 372.108 173.316 372.097C173.387 372.082 173.444 372.071 173.487 372.062L173.691 372.966C173.623 372.991 173.528 373.017 173.406 373.043C173.283 373.071 173.129 373.085 172.941 373.085C172.657 373.085 172.379 373.024 172.106 372.902C171.836 372.78 171.612 372.594 171.433 372.344C171.256 372.094 171.168 371.778 171.168 371.398V364.886Z" fill="black"/>
<path d="M294.712 324.207C295.102 323.817 295.102 323.183 294.712 322.793L288.348 316.429C287.957 316.038 287.324 316.038 286.933 316.429C286.543 316.819 286.543 317.453 286.933 317.843L292.59 323.5L286.933 329.157C286.543 329.547 286.543 330.181 286.933 330.571C287.324 330.962 287.957 330.962 288.348 330.571L294.712 324.207ZM237.996 323.5V324.5H294.004V323.5V322.5H237.996V323.5Z" fill="#FFC300"/>
<path d="M279.419 307.455V308.307H276.027V307.455H279.419ZM277.016 305.886H278.022V312.125C278.022 312.409 278.063 312.622 278.145 312.764C278.23 312.903 278.338 312.997 278.469 313.045C278.603 313.091 278.743 313.114 278.891 313.114C279.002 313.114 279.093 313.108 279.164 313.097C279.235 313.082 279.292 313.071 279.334 313.062L279.539 313.966C279.471 313.991 279.375 314.017 279.253 314.043C279.131 314.071 278.976 314.085 278.789 314.085C278.505 314.085 278.226 314.024 277.953 313.902C277.684 313.78 277.459 313.594 277.28 313.344C277.104 313.094 277.016 312.778 277.016 312.398V305.886ZM282.078 310.062V314H281.073V305.273H282.078V308.477H282.164C282.317 308.139 282.547 307.871 282.854 307.672C283.164 307.47 283.576 307.369 284.09 307.369C284.536 307.369 284.926 307.459 285.262 307.638C285.597 307.814 285.857 308.085 286.042 308.452C286.229 308.815 286.323 309.278 286.323 309.841V314H285.317V309.909C285.317 309.389 285.182 308.987 284.912 308.703C284.645 308.416 284.275 308.273 283.8 308.273C283.471 308.273 283.175 308.342 282.914 308.482C282.655 308.621 282.451 308.824 282.3 309.091C282.152 309.358 282.078 309.682 282.078 310.062ZM290.907 314.136C290.276 314.136 289.732 313.997 289.275 313.719C288.82 313.438 288.469 313.045 288.222 312.543C287.978 312.037 287.856 311.449 287.856 310.778C287.856 310.108 287.978 309.517 288.222 309.006C288.469 308.491 288.813 308.091 289.254 307.804C289.697 307.514 290.214 307.369 290.805 307.369C291.146 307.369 291.482 307.426 291.815 307.54C292.147 307.653 292.45 307.838 292.722 308.094C292.995 308.347 293.212 308.682 293.374 309.099C293.536 309.517 293.617 310.031 293.617 310.642V311.068H288.572V310.199H292.594C292.594 309.83 292.521 309.5 292.373 309.21C292.228 308.92 292.021 308.692 291.751 308.524C291.484 308.357 291.168 308.273 290.805 308.273C290.404 308.273 290.058 308.372 289.765 308.571C289.475 308.767 289.252 309.023 289.096 309.338C288.94 309.653 288.862 309.991 288.862 310.352V310.932C288.862 311.426 288.947 311.845 289.117 312.189C289.29 312.53 289.531 312.79 289.837 312.969C290.144 313.145 290.501 313.233 290.907 313.233C291.171 313.233 291.41 313.196 291.623 313.122C291.839 313.045 292.025 312.932 292.181 312.781C292.337 312.628 292.458 312.437 292.543 312.21L293.515 312.483C293.413 312.812 293.241 313.102 292.999 313.352C292.758 313.599 292.46 313.793 292.104 313.932C291.749 314.068 291.35 314.136 290.907 314.136ZM297.994 307.455V308.307H294.602V307.455H297.994ZM295.59 305.886H296.596V312.125C296.596 312.409 296.637 312.622 296.719 312.764C296.805 312.903 296.913 312.997 297.043 313.045C297.177 313.091 297.317 313.114 297.465 313.114C297.576 313.114 297.667 313.108 297.738 313.097C297.809 313.082 297.866 313.071 297.908 313.062L298.113 313.966C298.045 313.991 297.95 314.017 297.827 314.043C297.705 314.071 297.55 314.085 297.363 314.085C297.079 314.085 296.8 314.024 296.528 313.902C296.258 313.78 296.033 313.594 295.854 313.344C295.678 313.094 295.59 312.778 295.59 312.398V305.886ZM301.433 314.153C301.018 314.153 300.641 314.075 300.303 313.919C299.965 313.76 299.697 313.531 299.498 313.233C299.299 312.932 299.2 312.568 299.2 312.142C299.2 311.767 299.273 311.463 299.421 311.23C299.569 310.994 299.766 310.81 300.013 310.676C300.261 310.543 300.533 310.443 300.832 310.378C301.133 310.31 301.435 310.256 301.739 310.216C302.137 310.165 302.46 310.126 302.707 310.101C302.957 310.072 303.138 310.026 303.252 309.96C303.369 309.895 303.427 309.781 303.427 309.619V309.585C303.427 309.165 303.312 308.838 303.082 308.605C302.854 308.372 302.509 308.256 302.046 308.256C301.566 308.256 301.19 308.361 300.917 308.571C300.644 308.781 300.452 309.006 300.342 309.244L299.387 308.903C299.558 308.506 299.785 308.196 300.069 307.974C300.356 307.75 300.668 307.594 301.006 307.506C301.347 307.415 301.683 307.369 302.012 307.369C302.222 307.369 302.464 307.395 302.737 307.446C303.012 307.494 303.278 307.595 303.533 307.749C303.792 307.902 304.006 308.134 304.177 308.443C304.347 308.753 304.433 309.168 304.433 309.688V314H303.427V313.114H303.376C303.308 313.256 303.194 313.408 303.035 313.57C302.876 313.732 302.664 313.869 302.4 313.983C302.136 314.097 301.813 314.153 301.433 314.153ZM301.586 313.25C301.984 313.25 302.319 313.172 302.592 313.016C302.867 312.859 303.075 312.658 303.214 312.411C303.356 312.163 303.427 311.903 303.427 311.631V310.71C303.384 310.761 303.29 310.808 303.146 310.851C303.004 310.891 302.839 310.926 302.651 310.957C302.467 310.986 302.286 311.011 302.11 311.034C301.937 311.054 301.796 311.071 301.688 311.085C301.427 311.119 301.183 311.175 300.955 311.251C300.731 311.325 300.549 311.437 300.41 311.588C300.273 311.736 300.205 311.937 300.205 312.193C300.205 312.543 300.335 312.807 300.593 312.986C300.854 313.162 301.185 313.25 301.586 313.25Z" fill="black"/>
<g clip-path="url(#clip0_9_201)">
<rect width="800" height="250" fill="white"/>
<rect x="115" y="77" width="61" height="45" fill="#D9D9D9"/>
<circle cx="303" cy="93" r="29" fill="#D9D9D9"/>
<rect x="332" y="79" width="54" height="43" fill="#D9D9D9"/>
<line x1="-0.000531844" y1="128.54" x2="549" y2="128.54" stroke="black" stroke-width="2"/>
<line x1="550" y1="130" x2="550" y2="210" stroke="black" stroke-width="2"/>
<line x1="549" y1="211" x2="609" y2="211" stroke="black" stroke-width="2"/>
<line x1="608" y1="212" x2="608" y2="132" stroke="black" stroke-width="2"/>
<path d="M609 130H803.023" stroke="black" stroke-width="2"/>
<rect x="445.5" y="81.5" width="49" height="39" fill="#BF6A02" stroke="black"/>
<rect x="445.5" y="81.5" width="49" height="39" fill="#BF6A02" stroke="black"/>
<path d="M12.6132 99.5299C16.8605 99.5299 26.6483 98.9245 32.6201 97.6999C43.8355 95.3999 63.0295 94.9616 68.4005 91.8978C77.4786 86.7191 87.1919 75.074 93.9251 71.4139C99.5814 68.3391 113.721 67.4235 122.674 66.6621C127.614 66.242 136.085 64.6715 144.066 63.1488C155.194 61.0254 160.89 64.3596 165.788 65.5843C171.695 67.0609 178.319 70.469 183.218 73.0696C188.393 75.8172 193.602 78.1195 198.812 80.2569C203.879 82.3354 208.591 85.1462 214.246 86.5314C222.725 88.6082 227.855 83.9537 232.753 80.4312C237.148 77.2711 241.927 75.6978 246.362 73.5467C250.947 71.3228 254.457 67.7354 259.356 65.598C264.414 63.3911 270.052 62.5433 274.95 61.6168C282.299 60.2269 292.068 59.4795 301.961 58.4062C331.961 55.1517 347.914 59.1676 358.427 60.8417C363.542 61.6563 367.6 65.5705 372.036 67.7216C376.662 69.9654 381.048 73.221 385.947 75.6703C390.73 78.062 395.725 79.6423 400.624 82.8529C405.264 85.8943 410.403 87.8982 415.301 91.1089C419.726 94.0093 425.08 93.7141 432.263 94.1773C433.96 94.3287 435.171 94.6314 436.4 94.9387C437.629 95.246 438.84 95.5487 441.005 95.8606" stroke="#FF0000" stroke-width="2" stroke-linecap="round" stroke-dasharray="4 4"/>
<path d="M479.293 150.707C479.683 151.098 480.317 151.098 480.707 150.707L487.071 144.343C487.462 143.953 487.462 143.319 487.071 142.929C486.681 142.538 486.047 142.538 485.657 142.929L480 148.586L474.343 142.929C473.953 142.538 473.319 142.538 472.929 142.929C472.538 143.319 472.538 143.953 472.929 144.343L479.293 150.707ZM480 100H479V150H480H481V100H480Z" fill="#0033FF"/>
<path d="M548.293 179.707C548.683 180.098 549.317 180.098 549.707 179.707L556.071 173.343C556.462 172.953 556.462 172.319 556.071 171.929C555.681 171.538 555.047 171.538 554.657 171.929L549 177.586L543.343 171.929C542.953 171.538 542.319 171.538 541.929 171.929C541.538 172.319 541.538 172.953 541.929 173.343L548.293 179.707ZM549 129H548V179H549H550V129H549Z" fill="#0033FF"/>
<path d="M530.707 100.707C531.098 100.317 531.098 99.6834 530.707 99.2929L524.343 92.9289C523.953 92.5384 523.319 92.5384 522.929 92.9289C522.538 93.3195 522.538 93.9526 522.929 94.3431L528.586 100L522.929 105.657C522.538 106.047 522.538 106.681 522.929 107.071C523.319 107.462 523.953 107.462 524.343 107.071L530.707 100.707ZM480 100V101H530V100V99H480V100Z" fill="#0033FF"/>
<path d="M599.707 130.707C600.098 130.317 600.098 129.683 599.707 129.293L593.343 122.929C592.953 122.538 592.319 122.538 591.929 122.929C591.538 123.319 591.538 123.953 591.929 124.343L597.586 130L591.929 135.657C591.538 136.047 591.538 136.681 591.929 137.071C592.319 137.462 592.953 137.462 593.343 137.071L599.707 130.707ZM549 130V131H599V130V129H549V130Z" fill="#0033FF"/>
<path d="M507.227 77.2727L509.318 80.8409L511.409 77.2727H512.955L510.136 81.6364L512.955 86H511.409L509.318 82.6136L507.227 86H505.682L508.455 81.6364L505.682 77.2727H507.227ZM519.845 81.0909C519.845 79.6591 520.031 78.3428 520.402 77.142C520.777 75.9375 521.311 74.8295 522.004 73.8182H523.186C522.913 74.1932 522.658 74.6553 522.419 75.2045C522.184 75.75 521.978 76.3504 521.8 77.0057C521.622 77.6572 521.482 78.3314 521.379 79.0284C521.281 79.7254 521.232 80.4129 521.232 81.0909C521.232 81.9924 521.319 82.9072 521.493 83.8352C521.667 84.7633 521.902 85.625 522.197 86.4205C522.493 87.2159 522.822 87.8636 523.186 88.3636H522.004C521.311 87.3523 520.777 86.2462 520.402 85.0455C520.031 83.8409 519.845 82.5227 519.845 81.0909ZM525.347 86V74.3636H532.324V75.6136H526.756V79.5455H531.801V80.7955H526.756V86H525.347ZM534.462 86V77.2727H535.757V78.5909H535.848C536.007 78.1591 536.295 77.8087 536.712 77.5398C537.128 77.2708 537.598 77.1364 538.121 77.1364C538.219 77.1364 538.342 77.1383 538.49 77.142C538.638 77.1458 538.75 77.1515 538.825 77.1591V78.5227C538.78 78.5114 538.676 78.4943 538.513 78.4716C538.354 78.4451 538.185 78.4318 538.007 78.4318C537.583 78.4318 537.204 78.5208 536.871 78.6989C536.541 78.8731 536.28 79.1155 536.087 79.4261C535.897 79.733 535.803 80.0833 535.803 80.4773V86H534.462ZM543.278 81.0909C543.278 82.5227 543.091 83.8409 542.716 85.0455C542.345 86.2462 541.813 87.3523 541.119 88.3636H539.938C540.21 87.9886 540.464 87.5265 540.699 86.9773C540.938 86.4318 541.146 85.8333 541.324 85.1818C541.502 84.5265 541.64 83.8504 541.739 83.1534C541.841 82.4527 541.892 81.7652 541.892 81.0909C541.892 80.1894 541.805 79.2746 541.631 78.3466C541.456 77.4186 541.222 76.5568 540.926 75.7614C540.631 74.9659 540.301 74.3182 539.938 73.8182H541.119C541.813 74.8295 542.345 75.9375 542.716 77.142C543.091 78.3428 543.278 79.6591 543.278 81.0909Z" fill="black"/>
<path d="M432.091 155.273C431.864 155.273 431.661 155.254 431.483 155.216C431.305 155.182 431.182 155.148 431.114 155.114L431.455 153.932C431.78 154.015 432.068 154.045 432.318 154.023C432.568 154 432.79 153.888 432.983 153.688C433.18 153.491 433.36 153.17 433.523 152.727L433.773 152.045L430.545 143.273H432L434.409 150.227H434.5L436.909 143.273H438.364L434.659 153.273C434.492 153.723 434.286 154.097 434.04 154.392C433.794 154.691 433.508 154.913 433.182 155.057C432.86 155.201 432.496 155.273 432.091 155.273ZM445.111 147.091C445.111 145.659 445.296 144.343 445.668 143.142C446.043 141.937 446.577 140.83 447.27 139.818H448.452C448.179 140.193 447.923 140.655 447.685 141.205C447.45 141.75 447.243 142.35 447.065 143.006C446.887 143.657 446.747 144.331 446.645 145.028C446.546 145.725 446.497 146.413 446.497 147.091C446.497 147.992 446.584 148.907 446.759 149.835C446.933 150.763 447.168 151.625 447.463 152.42C447.759 153.216 448.088 153.864 448.452 154.364H447.27C446.577 153.352 446.043 152.246 445.668 151.045C445.296 149.841 445.111 148.523 445.111 147.091ZM450.612 152V140.364H457.589V141.614H452.021V145.545H457.067V146.795H452.021V152H450.612ZM459.727 152V143.273H461.023V144.591H461.114C461.273 144.159 461.561 143.809 461.977 143.54C462.394 143.271 462.864 143.136 463.386 143.136C463.485 143.136 463.608 143.138 463.756 143.142C463.903 143.146 464.015 143.152 464.091 143.159V144.523C464.045 144.511 463.941 144.494 463.778 144.472C463.619 144.445 463.451 144.432 463.273 144.432C462.848 144.432 462.47 144.521 462.136 144.699C461.807 144.873 461.545 145.116 461.352 145.426C461.163 145.733 461.068 146.083 461.068 146.477V152H459.727ZM468.544 147.091C468.544 148.523 468.357 149.841 467.982 151.045C467.61 152.246 467.078 153.352 466.385 154.364H465.203C465.476 153.989 465.73 153.527 465.964 152.977C466.203 152.432 466.411 151.833 466.589 151.182C466.768 150.527 466.906 149.85 467.004 149.153C467.107 148.453 467.158 147.765 467.158 147.091C467.158 146.189 467.071 145.275 466.896 144.347C466.722 143.419 466.487 142.557 466.192 141.761C465.896 140.966 465.567 140.318 465.203 139.818H466.385C467.078 140.83 467.61 141.937 467.982 143.142C468.357 144.343 468.544 145.659 468.544 147.091Z" fill="black"/>
<line x1="480.399" y1="99.0829" x2="549.399" y2="129.083" stroke="#FFC300" stroke-width="2" stroke-dasharray="2 2"/>
<g filter="url(#filter0_d_9_201)">
<line x1="480.227" y1="99.026" x2="609.227" y2="129.026" stroke="#FFC300" stroke-width="2" stroke-dasharray="2 2"/>
</g>
<path d="M563.227 143.273L565.318 146.841L567.409 143.273H568.955L566.136 147.636L568.955 152H567.409L565.318 148.614L563.227 152H561.682L564.455 147.636L561.682 143.273H563.227ZM575.845 147.091C575.845 145.659 576.031 144.343 576.402 143.142C576.777 141.937 577.311 140.83 578.004 139.818H579.186C578.913 140.193 578.658 140.655 578.419 141.205C578.184 141.75 577.978 142.35 577.8 143.006C577.622 143.657 577.482 144.331 577.379 145.028C577.281 145.725 577.232 146.413 577.232 147.091C577.232 147.992 577.319 148.907 577.493 149.835C577.667 150.763 577.902 151.625 578.197 152.42C578.493 153.216 578.822 153.864 579.186 154.364H578.004C577.311 153.352 576.777 152.246 576.402 151.045C576.031 149.841 575.845 148.523 575.845 147.091ZM581.347 152V140.364H588.324V141.614H582.756V145.545H587.801V146.795H582.756V152H581.347ZM590.737 152V140.364H592.078V144.659H592.192C592.29 144.508 592.427 144.314 592.601 144.08C592.779 143.841 593.033 143.629 593.362 143.443C593.696 143.254 594.146 143.159 594.714 143.159C595.449 143.159 596.097 143.343 596.658 143.71C597.218 144.078 597.656 144.598 597.97 145.273C598.285 145.947 598.442 146.742 598.442 147.659C598.442 148.583 598.285 149.384 597.97 150.062C597.656 150.737 597.22 151.259 596.663 151.631C596.107 151.998 595.464 152.182 594.737 152.182C594.177 152.182 593.728 152.089 593.391 151.903C593.054 151.714 592.794 151.5 592.612 151.261C592.43 151.019 592.29 150.818 592.192 150.659H592.033V152H590.737ZM592.055 147.636C592.055 148.295 592.152 148.877 592.345 149.381C592.538 149.881 592.821 150.273 593.192 150.557C593.563 150.837 594.018 150.977 594.555 150.977C595.116 150.977 595.584 150.83 595.959 150.534C596.338 150.235 596.622 149.833 596.811 149.33C597.004 148.822 597.101 148.258 597.101 147.636C597.101 147.023 597.006 146.47 596.817 145.977C596.631 145.481 596.349 145.089 595.97 144.801C595.595 144.509 595.124 144.364 594.555 144.364C594.01 144.364 593.552 144.502 593.18 144.778C592.809 145.051 592.529 145.434 592.339 145.926C592.15 146.415 592.055 146.985 592.055 147.636ZM603.169 147.091C603.169 148.523 602.982 149.841 602.607 151.045C602.235 152.246 601.703 153.352 601.01 154.364H599.828C600.101 153.989 600.355 153.527 600.589 152.977C600.828 152.432 601.036 151.833 601.214 151.182C601.393 150.527 601.531 149.85 601.629 149.153C601.732 148.453 601.783 147.765 601.783 147.091C601.783 146.189 601.696 145.275 601.521 144.347C601.347 143.419 601.112 142.557 600.817 141.761C600.521 140.966 600.192 140.318 599.828 139.818H601.01C601.703 140.83 602.235 141.937 602.607 143.142C602.982 144.343 603.169 145.659 603.169 147.091Z" fill="black"/>
<path d="M496.091 175.273C495.864 175.273 495.661 175.254 495.483 175.216C495.305 175.182 495.182 175.148 495.114 175.114L495.455 173.932C495.78 174.015 496.068 174.045 496.318 174.023C496.568 174 496.79 173.888 496.983 173.688C497.18 173.491 497.36 173.17 497.523 172.727L497.773 172.045L494.545 163.273H496L498.409 170.227H498.5L500.909 163.273H502.364L498.659 173.273C498.492 173.723 498.286 174.097 498.04 174.392C497.794 174.691 497.508 174.913 497.182 175.057C496.86 175.201 496.496 175.273 496.091 175.273ZM509.111 167.091C509.111 165.659 509.296 164.343 509.668 163.142C510.043 161.937 510.577 160.83 511.27 159.818H512.452C512.179 160.193 511.923 160.655 511.685 161.205C511.45 161.75 511.243 162.35 511.065 163.006C510.887 163.657 510.747 164.331 510.645 165.028C510.546 165.725 510.497 166.413 510.497 167.091C510.497 167.992 510.584 168.907 510.759 169.835C510.933 170.763 511.168 171.625 511.463 172.42C511.759 173.216 512.088 173.864 512.452 174.364H511.27C510.577 173.352 510.043 172.246 509.668 171.045C509.296 169.841 509.111 168.523 509.111 167.091ZM514.612 172V160.364H521.589V161.614H516.021V165.545H521.067V166.795H516.021V172H514.612ZM524.003 172V160.364H525.344V164.659H525.457C525.556 164.508 525.692 164.314 525.866 164.08C526.045 163.841 526.298 163.629 526.628 163.443C526.961 163.254 527.412 163.159 527.98 163.159C528.715 163.159 529.363 163.343 529.923 163.71C530.484 164.078 530.921 164.598 531.236 165.273C531.55 165.947 531.707 166.742 531.707 167.659C531.707 168.583 531.55 169.384 531.236 170.062C530.921 170.737 530.486 171.259 529.929 171.631C529.372 171.998 528.73 172.182 528.003 172.182C527.442 172.182 526.993 172.089 526.656 171.903C526.319 171.714 526.06 171.5 525.878 171.261C525.696 171.019 525.556 170.818 525.457 170.659H525.298V172H524.003ZM525.321 167.636C525.321 168.295 525.418 168.877 525.611 169.381C525.804 169.881 526.086 170.273 526.457 170.557C526.829 170.837 527.283 170.977 527.821 170.977C528.382 170.977 528.849 170.83 529.224 170.534C529.603 170.235 529.887 169.833 530.077 169.33C530.27 168.822 530.366 168.258 530.366 167.636C530.366 167.023 530.272 166.47 530.082 165.977C529.897 165.481 529.615 165.089 529.236 164.801C528.861 164.509 528.389 164.364 527.821 164.364C527.276 164.364 526.817 164.502 526.446 164.778C526.075 165.051 525.795 165.434 525.605 165.926C525.416 166.415 525.321 166.985 525.321 167.636ZM536.435 167.091C536.435 168.523 536.247 169.841 535.872 171.045C535.501 172.246 534.969 173.352 534.276 174.364H533.094C533.366 173.989 533.62 173.527 533.855 172.977C534.094 172.432 534.302 171.833 534.48 171.182C534.658 170.527 534.796 169.85 534.895 169.153C534.997 168.453 535.048 167.765 535.048 167.091C535.048 166.189 534.961 165.275 534.787 164.347C534.613 163.419 534.378 162.557 534.082 161.761C533.787 160.966 533.457 160.318 533.094 159.818H534.276C534.969 160.83 535.501 161.937 535.872 163.142C536.247 164.343 536.435 165.659 536.435 167.091Z" fill="black"/>
</g>
<defs>
<filter id="filter0_d_9_201" x="476" y="98.052" width="137.453" height="39.948" filterUnits="userSpaceOnUse" color-interpolation-filters="sRGB">
<feFlood flood-opacity="0" result="BackgroundImageFix"/>
<feColorMatrix in="SourceAlpha" type="matrix" values="0 0 0 0 0 0 0 0 0 0 0 0 0 0 0 0 0 0 127 0" result="hardAlpha"/>
<feOffset dy="4"/>
<feGaussianBlur stdDeviation="2"/>
<feComposite in2="hardAlpha" operator="out"/>
<feColorMatrix type="matrix" values="0 0 0 0 0 0 0 0 0 0 0 0 0 0 0 0 0 0 0.25 0"/>
<feBlend mode="normal" in2="BackgroundImageFix" result="effect1_dropShadow_9_201"/>
<feBlend mode="normal" in="SourceGraphic" in2="effect1_dropShadow_9_201" result="shape"/>
</filter>
<clipPath id="clip0_9_201">
<rect width="800" height="250" fill="white"/>
</clipPath>
</defs>
</svg>
